<?xml version="1.0" encoding="utf-8"?>
<!-- Generator: Adobe Illustrator 26.1.0, SVG Export Plug-In . SVG Version: 6.00 Build 0)  -->
<svg version="1.1" id="레이어_1" xmlns="http://www.w3.org/2000/svg" xmlns:xlink="http://www.w3.org/1999/xlink" x="0px"
	 y="0px" viewBox="0 0 283.5 283.5" style="enable-background:new 0 0 283.5 283.5;" xml:space="preserve">
<style type="text/css">
	.st0{fill:#FFFFFF;stroke:#FFFFFF;stroke-width:2.94;stroke-miterlimit:10;}
	.st1{fill:#FFFFFF;}
	.st2{fill:none;}
	.st3{fill:#231815;}
	.st4{fill:#211815;}
</style>
<g>
	<path class="st0" d="M280.5,171.1c0-0.1-0.1-0.1-0.1-0.2c0-0.1-0.1-0.3-0.2-0.4c0-0.1-0.1-0.1-0.1-0.2c-0.1-0.1-0.2-0.2-0.2-0.3
		c-0.1-0.1-0.1-0.1-0.2-0.2c-0.1-0.1-0.1-0.1-0.2-0.2c0,0-0.1,0-0.1,0c0,0,0,0-0.1,0l-51.1-26.1c-0.7-0.4-1.5-0.4-2.2,0L175,169.6
		c0,0,0,0-0.1,0c0,0-0.1,0-0.1,0c-0.1,0.1-0.1,0.1-0.2,0.2c-0.1,0.1-0.1,0.1-0.2,0.2c-0.1,0.1-0.2,0.2-0.2,0.3
		c0,0.1-0.1,0.1-0.1,0.2c-0.1,0.1-0.1,0.3-0.2,0.4c0,0.1-0.1,0.1-0.1,0.2c-0.1,0.2-0.1,0.4-0.1,0.6v37.5h-63.9v-37.5
		c0-0.2,0-0.4-0.1-0.6c0-0.1-0.1-0.1-0.1-0.2c0-0.1-0.1-0.3-0.2-0.4c0-0.1-0.1-0.1-0.1-0.2c-0.1-0.1-0.2-0.2-0.2-0.3
		c-0.1-0.1-0.1-0.1-0.2-0.2c-0.1-0.1-0.1-0.1-0.2-0.2c0,0-0.1,0-0.1,0c0,0,0,0-0.1,0l-51.1-26.1c-0.7-0.4-1.5-0.4-2.2,0L4.1,169.6
		c0,0,0,0-0.1,0c0,0-0.1,0-0.1,0c-0.1,0.1-0.1,0.1-0.2,0.2c-0.1,0.1-0.1,0.1-0.2,0.2c-0.1,0.1-0.2,0.2-0.2,0.3
		c0,0.1-0.1,0.1-0.1,0.2c-0.1,0.1-0.1,0.3-0.2,0.4c0,0.1-0.1,0.1-0.1,0.2c-0.1,0.2-0.1,0.4-0.1,0.6v63.8c0,0.9,0.5,1.7,1.3,2.1
		l51.1,26.1c0.1,0,0.2,0.1,0.3,0.1c0.1,0,0.1,0.1,0.2,0.1c0.2,0.1,0.4,0.1,0.6,0.1s0.4,0,0.6-0.1c0.1,0,0.1,0,0.2-0.1
		c0.1,0,0.2-0.1,0.3-0.1l51.1-26.1c0.8-0.4,1.3-1.2,1.3-2.1V214h63.9v21.4c0,0.9,0.5,1.7,1.3,2.1l51.1,26.1c0.1,0,0.2,0.1,0.3,0.1
		c0.1,0,0.1,0.1,0.2,0.1c0.2,0.1,0.4,0.1,0.6,0.1s0.4,0,0.6-0.1c0.1,0,0.1,0,0.2-0.1c0.1,0,0.2-0.1,0.3-0.1l51.1-26.1
		c0.8-0.4,1.3-1.2,1.3-2.1v-63.8C280.6,171.5,280.6,171.3,280.5,171.1z M56.3,148.3l45.8,23.4l-45.8,23.4l-45.8-23.4L56.3,148.3z
		 M7.7,175.6l46.2,23.6v58.3L7.7,234V175.6z M104.9,234l-46.2,23.6v-58.3l46.2-23.6v33.6H93.9c-1.3,0-2.4,1.1-2.4,2.4
		s1.1,2.4,2.4,2.4h11.1V234z M227.2,148.3l45.8,23.4l-45.8,23.4l-45.8-23.4L227.2,148.3z M178.5,214h8.6c1.3,0,2.4-1.1,2.4-2.4
		s-1.1-2.4-2.4-2.4h-8.6v-33.6l46.2,23.6v58.3L178.5,234V214z M229.6,257.6v-58.3l46.2-23.6V234L229.6,257.6z"/>
	<path class="st0" d="M87.9,150.9c0.7,0,1.3-0.3,1.8-0.8l21.3-24.5l28.4,14.5c0.1,0.1,0.2,0.1,0.3,0.1c0.1,0,0.1,0.1,0.2,0.1
		c0.2,0.1,0.4,0.1,0.6,0.1s0.4,0,0.6-0.1c0.1,0,0.1,0,0.2-0.1c0.1,0,0.2-0.1,0.3-0.1l25.1-12.8l19.9,22.9c0.5,0.5,1.1,0.8,1.8,0.8
		c0.6,0,1.1-0.2,1.6-0.6c1-0.9,1.1-2.4,0.2-3.4l-19.1-22l21.5-11c0.8-0.4,1.3-1.2,1.3-2.1V48c0-0.2,0-0.4-0.1-0.6
		c0-0.1-0.1-0.1-0.1-0.2c0-0.1-0.1-0.3-0.2-0.4c0-0.1-0.1-0.1-0.1-0.2c-0.1-0.1-0.1-0.2-0.2-0.3c-0.1-0.1-0.1-0.1-0.2-0.2
		c-0.1-0.1-0.1-0.1-0.2-0.2c0,0-0.1,0-0.1,0c0,0,0,0-0.1,0l-51.1-26.1c-0.7-0.4-1.5-0.4-2.2,0L88.4,45.9c0,0,0,0-0.1,0.1
		c0,0-0.1,0-0.1,0c-0.1,0-0.1,0.1-0.2,0.2c-0.1,0.1-0.1,0.1-0.2,0.2c-0.1,0.1-0.2,0.2-0.2,0.3c-0.1,0.1-0.1,0.1-0.1,0.2
		c-0.1,0.1-0.1,0.3-0.2,0.4c0,0.1-0.1,0.1-0.1,0.2c-0.1,0.2-0.1,0.4-0.1,0.6v63.8c0,0.9,0.5,1.7,1.3,2.1l18.2,9.3l-20.6,23.6
		c-0.9,1-0.8,2.5,0.2,3.4C86.7,150.7,87.3,150.9,87.9,150.9z M189.2,110.3l-21.3,10.9l-4.8-5.5c-0.9-1-2.4-1.1-3.4-0.2
		c-1,0.9-1.1,2.4-0.2,3.4l4,4.6l-20.6,10.5V75.6L189.2,52L189.2,110.3L189.2,110.3z M140.5,24.6L186.3,48l-45.8,23.4L94.8,48
		L140.5,24.6z M91.9,110.3V52l46.2,23.6v58.3l-23.8-12.2l2.5-2.9c0.9-1,0.8-2.5-0.2-3.4c-1-0.9-2.5-0.8-3.4,0.2l-3.3,3.8L91.9,110.3
		z"/>
</g>
<g>
	<g>
		<circle class="st1" cx="141.7" cy="474.3" r="134.2"/>
		<path d="M141.7,613.2c-76.6,0-138.9-62.3-138.9-138.9s62.3-138.9,138.9-138.9s138.9,62.3,138.9,138.9S218.3,613.2,141.7,613.2z
			 M141.7,344.8c-71.4,0-129.4,58.1-129.4,129.4s58.1,129.4,129.4,129.4c71.4,0,129.4-58.1,129.4-129.4S213.1,344.8,141.7,344.8z"/>
	</g>
	<g>
		<path class="st1" d="M187.8,428.2h-69.1c-12.7,0-23,10.3-23,23l0,0c0,12.7,10.3,23,23,23h46c12.7,0,23,10.3,23,23l0,0
			c0,12.7-10.3,23-23,23H95.7"/>
		<path d="M164.7,525H95.7c-2.6,0-4.7-2.1-4.7-4.7s2.1-4.7,4.7-4.7h69.1c10.1,0,18.3-8.2,18.3-18.3s-8.2-18.3-18.3-18.3h-46
			c-15.3,0-27.8-12.4-27.8-27.7c0-15.3,12.4-27.8,27.8-27.8h69.1c2.6,0,4.7,2.1,4.7,4.7s-2.1,4.7-4.7,4.7h-69.1
			c-10.1,0-18.3,8.2-18.3,18.3s8.2,18.3,18.3,18.3h46c15.3,0,27.8,12.4,27.8,27.8S180.1,525,164.7,525z"/>
	</g>
	<g>
		<line class="st2" x1="129.9" y1="397.6" x2="129.9" y2="551"/>
		<path d="M129.9,555.7c-2.6,0-4.7-2.1-4.7-4.7V397.5c0-2.6,2.1-4.7,4.7-4.7s4.7,2.1,4.7,4.7V551
			C134.6,553.6,132.5,555.7,129.9,555.7z"/>
	</g>
	<g>
		<line class="st2" x1="153.6" y1="397.6" x2="153.6" y2="551"/>
		<path d="M153.6,555.7c-2.6,0-4.7-2.1-4.7-4.7V397.5c0-2.6,2.1-4.7,4.7-4.7s4.7,2.1,4.7,4.7V551
			C158.3,553.6,156.2,555.7,153.6,555.7z"/>
	</g>
</g>
<g>
	<g>
		<path class="st3" d="M241.3,901.7H42.2c-21.7,0-39.3-17.7-39.3-39.3v-135c0-21.7,17.6-39.3,39.3-39.3h199.1
			c21.7,0,39.3,17.7,39.3,39.3v135C280.6,884.1,263,901.7,241.3,901.7z M42.2,697.6c-16.4,0-29.7,13.3-29.7,29.7v135
			c0,16.4,13.3,29.7,29.7,29.7h199.1c16.4,0,29.7-13.3,29.7-29.7v-135c0-16.4-13.3-29.7-29.7-29.7H42.2z"/>
	</g>
	<g>
		<path class="st3" d="M275.8,826h-67.3c-17.2,0-31.2-14-31.2-31.2c0-17.2,14-31.2,31.2-31.2h67.3c2.7,0,4.8,2.2,4.8,4.8v52.6
			C280.6,823.8,278.5,826,275.8,826z M208.5,773.3c-11.9,0-21.5,9.6-21.5,21.5c0,11.9,9.6,21.5,21.5,21.5H271v-43L208.5,773.3
			L208.5,773.3z"/>
	</g>
	<g>
		<line class="st2" x1="218.5" y1="794.8" x2="221.9" y2="794.8"/>
		<path class="st3" d="M221.9,799.7h-3.4c-2.7,0-4.8-2.2-4.8-4.8c0-2.7,2.2-4.8,4.8-4.8h3.4c2.7,0,4.8,2.2,4.8,4.8
			S224.6,799.7,221.9,799.7z"/>
	</g>
</g>
<g>
	<path class="st4" d="M66.7,1095.3h115.9c2.4,0,4.3-1.9,4.3-4.3s-1.9-4.3-4.3-4.3H66.7c-2.4,0-4.3,1.9-4.3,4.3
		S64.3,1095.3,66.7,1095.3z"/>
	<path class="st4" d="M66.7,1134.4h115.9c2.4,0,4.3-1.9,4.3-4.3c0-2.4-1.9-4.3-4.3-4.3H66.7c-2.4,0-4.3,1.9-4.3,4.3
		S64.3,1134.4,66.7,1134.4z"/>
	<path class="st4" d="M186.9,1169.2c0-2.4-1.9-4.3-4.3-4.3H66.7c-2.4,0-4.3,1.9-4.3,4.3c0,2.4,1.9,4.3,4.3,4.3h115.9
		C185,1173.5,186.9,1171.6,186.9,1169.2z"/>
	<path class="st4" d="M249,1012.7h-71.4l-26.7-28.2c0,0,0,0,0,0c-0.1-0.1-0.3-0.2-0.4-0.3c-0.1-0.1-0.2-0.1-0.2-0.2
		c-0.2-0.1-0.4-0.2-0.6-0.3c-0.1,0-0.1-0.1-0.2-0.1c-0.5-0.2-1.1-0.3-1.7-0.3H34.5c-2.4,0-4.3,1.9-4.3,4.3v238.7
		c0,2.4,1.9,4.3,4.3,4.3h33.6v26.2c0,2.4,1.9,4.3,4.3,4.3H249c2.4,0,4.3-1.9,4.3-4.3V1017C253.3,1014.7,251.4,1012.7,249,1012.7z
		 M152.1,998.3l56.4,59.6h-56.4V998.3z M38.8,991.8h104.6v70.4c0,2.4,1.9,4.3,4.3,4.3H213v155.3H38.8V991.8z M244.7,1252.3H76.8
		v-21.8h140.6c2.4,0,4.3-1.9,4.3-4.3V1061c0-1.1-0.4-2.2-1.2-3l-34.7-36.7h58.9L244.7,1252.3L244.7,1252.3z"/>
</g>
</svg>
