<?xml version="1.0" encoding="utf-8"?>
<!-- Generator: Adobe Illustrator 26.1.0, SVG Export Plug-In . SVG Version: 6.00 Build 0)  -->
<svg version="1.1" id="레이어_1" xmlns="http://www.w3.org/2000/svg" xmlns:xlink="http://www.w3.org/1999/xlink" x="0px"
	 y="0px" viewBox="0 0 283.5 283.5" style="enable-background:new 0 0 283.5 283.5;" xml:space="preserve">
<style type="text/css">
	.st0{stroke:#000000;stroke-width:2.94;stroke-miterlimit:10;}
	.st1{fill:#FFFFFF;}
	.st2{fill:none;}
	.st3{fill:#231815;}
	.st4{fill:#211815;}
	.st5{fill:#FFFFFF;stroke:#FFFFFF;stroke-width:2;stroke-miterlimit:10;}
</style>
<g>
	<path class="st0" d="M280.5,516.9c0-0.1-0.1-0.1-0.1-0.2c0-0.1-0.1-0.3-0.2-0.4c0-0.1-0.1-0.1-0.1-0.2c-0.1-0.1-0.2-0.2-0.2-0.3
		c-0.1-0.1-0.1-0.1-0.2-0.2c-0.1-0.1-0.1-0.1-0.2-0.2c0,0-0.1,0-0.1,0c0,0,0,0-0.1,0l-51.1-26.1c-0.7-0.4-1.5-0.4-2.2,0L175,515.4
		c0,0,0,0-0.1,0c0,0-0.1,0-0.1,0c-0.1,0.1-0.1,0.1-0.2,0.2c-0.1,0.1-0.1,0.1-0.2,0.2c-0.1,0.1-0.2,0.2-0.2,0.3
		c0,0.1-0.1,0.1-0.1,0.2c-0.1,0.1-0.1,0.3-0.2,0.4c0,0.1-0.1,0.1-0.1,0.2c-0.1,0.2-0.1,0.4-0.1,0.6V555h-63.9v-37.5
		c0-0.2,0-0.4-0.1-0.6c0-0.1-0.1-0.1-0.1-0.2c0-0.1-0.1-0.3-0.2-0.4c0-0.1-0.1-0.1-0.1-0.2c-0.1-0.1-0.2-0.2-0.2-0.3
		c-0.1-0.1-0.1-0.1-0.2-0.2c-0.1-0.1-0.1-0.1-0.2-0.2c0,0-0.1,0-0.1,0c0,0,0,0-0.1,0l-51.1-26.1c-0.7-0.4-1.5-0.4-2.2,0L4.1,515.4
		c0,0,0,0-0.1,0c0,0-0.1,0-0.1,0c-0.1,0-0.1,0.1-0.2,0.2c-0.1,0.1-0.1,0.1-0.2,0.2c-0.1,0.1-0.2,0.2-0.2,0.3c0,0.1-0.1,0.1-0.1,0.2
		c-0.1,0.1-0.1,0.3-0.2,0.4c0,0.1-0.1,0.1-0.1,0.2c-0.1,0.2-0.1,0.4-0.1,0.6v63.8c0,0.9,0.5,1.7,1.3,2.1l51.1,26.1
		c0.1,0,0.2,0.1,0.3,0.1c0.1,0,0.1,0.1,0.2,0.1c0.2,0.1,0.4,0.1,0.6,0.1s0.4,0,0.6-0.1c0.1,0,0.1,0,0.2-0.1c0.1,0,0.2-0.1,0.3-0.1
		l51.1-26.1c0.8-0.4,1.3-1.2,1.3-2.1v-21.4h63.9v21.4c0,0.9,0.5,1.7,1.3,2.1l51.1,26.1c0.1,0,0.2,0.1,0.3,0.1c0.1,0,0.1,0.1,0.2,0.1
		c0.2,0.1,0.4,0.1,0.6,0.1s0.4,0,0.6-0.1c0.1,0,0.1,0,0.2-0.1c0.1,0,0.2-0.1,0.3-0.1l51.1-26.1c0.8-0.4,1.3-1.2,1.3-2.1v-63.8
		C280.6,517.3,280.6,517.1,280.5,516.9z M56.3,494.1l45.8,23.4l-45.8,23.4l-45.8-23.4L56.3,494.1z M7.7,521.5l46.2,23.6v58.3
		L7.7,579.8V521.5z M104.9,579.8l-46.2,23.6v-58.3l46.2-23.6V555H93.9c-1.3,0-2.4,1.1-2.4,2.4s1.1,2.4,2.4,2.4h11.1V579.8z
		 M227.2,494.1l45.8,23.4l-45.8,23.4l-45.8-23.4L227.2,494.1z M178.5,559.9h8.6c1.3,0,2.4-1.1,2.4-2.4s-1.1-2.4-2.4-2.4h-8.6v-33.6
		l46.2,23.6v58.3l-46.2-23.6V559.9z M229.6,603.5v-58.3l46.2-23.6v58.3L229.6,603.5z"/>
	<path class="st0" d="M87.9,496.7c0.7,0,1.3-0.3,1.8-0.8l21.3-24.5l28.4,14.5c0.1,0,0.2,0.1,0.3,0.1c0.1,0,0.1,0.1,0.2,0.1
		c0.2,0.1,0.4,0.1,0.6,0.1s0.4,0,0.6-0.1c0.1,0,0.1,0,0.2-0.1c0.1,0,0.2-0.1,0.3-0.1l25.1-12.8l19.9,22.9c0.5,0.5,1.1,0.8,1.8,0.8
		c0.6,0,1.1-0.2,1.6-0.6c1-0.9,1.1-2.4,0.2-3.4l-19.1-22l21.5-11c0.8-0.4,1.3-1.2,1.3-2.1v-63.8c0-0.2,0-0.4-0.1-0.6
		c0-0.1-0.1-0.1-0.1-0.2c0-0.1-0.1-0.3-0.2-0.4c0-0.1-0.1-0.1-0.1-0.2c-0.1-0.1-0.1-0.2-0.2-0.3c-0.1-0.1-0.1-0.1-0.2-0.2
		c-0.1-0.1-0.1-0.1-0.2-0.2c0,0-0.1,0-0.1,0c0,0,0,0-0.1,0l-51.1-26.1c-0.7-0.4-1.5-0.4-2.2,0l-51.1,26.1c0,0,0,0-0.1,0.1
		c0,0-0.1,0-0.1,0c-0.1,0-0.1,0.1-0.2,0.2c-0.1,0.1-0.1,0.1-0.2,0.2c-0.1,0.1-0.2,0.2-0.2,0.3c-0.1,0.1-0.1,0.1-0.1,0.2
		c-0.1,0.1-0.1,0.3-0.2,0.4c0,0.1-0.1,0.1-0.1,0.2c-0.1,0.2-0.1,0.4-0.1,0.6v63.8c0,0.9,0.5,1.7,1.3,2.1l18.2,9.3l-20.6,23.6
		c-0.9,1-0.8,2.5,0.2,3.4C86.7,496.5,87.3,496.7,87.9,496.7z M189.2,456.1L167.9,467l-4.8-5.5c-0.9-1-2.4-1.1-3.4-0.2
		c-1,0.9-1.1,2.4-0.2,3.4l4,4.6l-20.6,10.5v-58.3l46.2-23.6L189.2,456.1L189.2,456.1z M140.5,370.5l45.8,23.4l-45.8,23.4l-45.8-23.4
		L140.5,370.5z M91.9,456.1v-58.3l46.2,23.6v58.3l-23.8-12.2l2.5-2.9c0.9-1,0.8-2.5-0.2-3.4c-1-0.9-2.5-0.8-3.4,0.2l-3.3,3.8
		L91.9,456.1z"/>
</g>
<g>
	<g>
		<circle class="st1" cx="141.7" cy="820.1" r="134.2"/>
		<path d="M141.7,959C65.1,959,2.8,896.7,2.8,820.1s62.3-138.9,138.9-138.9s138.9,62.3,138.9,138.9S218.3,959,141.7,959z
			 M141.7,690.7c-71.4,0-129.4,58.1-129.4,129.4s58.1,129.4,129.4,129.4c71.4,0,129.4-58.1,129.4-129.4S213.1,690.7,141.7,690.7z"/>
	</g>
	<g>
		<path class="st1" d="M187.8,774.1h-69.1c-12.7,0-23,10.3-23,23l0,0c0,12.7,10.3,23,23,23h46c12.7,0,23,10.3,23,23l0,0
			c0,12.7-10.3,23-23,23H95.7"/>
		<path d="M164.7,870.9H95.7c-2.6,0-4.7-2.1-4.7-4.7s2.1-4.7,4.7-4.7h69.1c10.1,0,18.3-8.2,18.3-18.3s-8.2-18.3-18.3-18.3h-46
			c-15.3,0-27.8-12.4-27.8-27.7c0-15.3,12.4-27.8,27.8-27.8h69.1c2.6,0,4.7,2.1,4.7,4.7s-2.1,4.7-4.7,4.7h-69.1
			c-10.1,0-18.3,8.2-18.3,18.3s8.2,18.3,18.3,18.3h46c15.3,0,27.8,12.4,27.8,27.8C192.5,858.4,180.1,870.9,164.7,870.9z"/>
	</g>
	<g>
		<line class="st2" x1="129.9" y1="743.4" x2="129.9" y2="896.8"/>
		<path d="M129.9,901.6c-2.6,0-4.7-2.1-4.7-4.7V743.4c0-2.6,2.1-4.7,4.7-4.7s4.7,2.1,4.7,4.7v153.4
			C134.6,899.5,132.5,901.6,129.9,901.6z"/>
	</g>
	<g>
		<line class="st2" x1="153.6" y1="743.4" x2="153.6" y2="896.8"/>
		<path d="M153.6,901.6c-2.6,0-4.7-2.1-4.7-4.7V743.4c0-2.6,2.1-4.7,4.7-4.7s4.7,2.1,4.7,4.7v153.4
			C158.3,899.5,156.2,901.6,153.6,901.6z"/>
	</g>
</g>
<g>
	<g>
		<path class="st3" d="M241.3,1247.6H42.2c-21.7,0-39.3-17.7-39.3-39.3v-135c0-21.7,17.6-39.3,39.3-39.3h199.1
			c21.7,0,39.3,17.7,39.3,39.3v135C280.6,1229.9,263,1247.6,241.3,1247.6z M42.2,1043.5c-16.4,0-29.7,13.3-29.7,29.7v135
			c0,16.4,13.3,29.7,29.7,29.7h199.1c16.4,0,29.7-13.3,29.7-29.7v-135c0-16.4-13.3-29.7-29.7-29.7H42.2z"/>
	</g>
	<g>
		<path class="st3" d="M275.8,1171.8h-67.3c-17.2,0-31.2-14-31.2-31.2s14-31.2,31.2-31.2h67.3c2.7,0,4.8,2.2,4.8,4.8v52.6
			C280.6,1169.7,278.5,1171.8,275.8,1171.8z M208.5,1119.2c-11.9,0-21.5,9.6-21.5,21.5c0,11.9,9.6,21.5,21.5,21.5H271v-43
			L208.5,1119.2L208.5,1119.2z"/>
	</g>
	<g>
		<line class="st2" x1="218.5" y1="1140.7" x2="221.9" y2="1140.7"/>
		<path class="st3" d="M221.9,1145.5h-3.4c-2.7,0-4.8-2.2-4.8-4.8s2.2-4.8,4.8-4.8h3.4c2.7,0,4.8,2.2,4.8,4.8
			S224.6,1145.5,221.9,1145.5z"/>
	</g>
</g>
<g>
	<path class="st4" d="M66.7,1441.2h115.9c2.4,0,4.3-1.9,4.3-4.3c0-2.4-1.9-4.3-4.3-4.3H66.7c-2.4,0-4.3,1.9-4.3,4.3
		C62.4,1439.2,64.3,1441.2,66.7,1441.2z"/>
	<path class="st4" d="M66.7,1480.3h115.9c2.4,0,4.3-1.9,4.3-4.3s-1.9-4.3-4.3-4.3H66.7c-2.4,0-4.3,1.9-4.3,4.3
		C62.4,1478.3,64.3,1480.3,66.7,1480.3z"/>
	<path class="st4" d="M186.9,1515.1c0-2.4-1.9-4.3-4.3-4.3H66.7c-2.4,0-4.3,1.9-4.3,4.3s1.9,4.3,4.3,4.3h115.9
		C185,1519.4,186.9,1517.5,186.9,1515.1z"/>
	<path class="st4" d="M249,1358.6h-71.4l-26.7-28.2c0,0,0,0,0,0c-0.1-0.1-0.3-0.2-0.4-0.3c-0.1-0.1-0.2-0.1-0.2-0.2
		c-0.2-0.1-0.4-0.2-0.6-0.3c-0.1,0-0.1-0.1-0.2-0.1c-0.5-0.2-1.1-0.3-1.7-0.3H34.5c-2.4,0-4.3,1.9-4.3,4.3V1572
		c0,2.4,1.9,4.3,4.3,4.3h33.6v26.2c0,2.4,1.9,4.3,4.3,4.3H249c2.4,0,4.3-1.9,4.3-4.3v-239.6C253.3,1360.5,251.4,1358.6,249,1358.6z
		 M152.1,1344.2l56.4,59.6h-56.4V1344.2z M38.8,1337.7h104.6v70.4c0,2.4,1.9,4.3,4.3,4.3H213v155.3H38.8V1337.7z M244.7,1598.2H76.8
		v-21.8h140.6c2.4,0,4.3-1.9,4.3-4.3v-165.1c0-1.1-0.4-2.2-1.2-3l-34.7-36.7h58.9L244.7,1598.2L244.7,1598.2z"/>
</g>
<path class="st5" d="M279.3,131.1L144,22.7c-1.3-1.1-3.2-1.1-4.5,0L4.2,131.1c-1.2,1-1.7,2.6-1.1,4c0.5,1.4,1.9,2.4,3.4,2.4h26V258
	c0,2,1.6,3.6,3.6,3.6h72.9c2,0,3.6-1.6,3.6-3.6v-38.8c0-16.1,13.1-29.2,29.2-29.2c16.1,0,29.2,13.1,29.2,29.2V258
	c0,2,1.6,3.6,3.6,3.6h72.9c2,0,3.6-1.6,3.6-3.6V137.6h26c1.5,0,2.9-1,3.4-2.4C280.9,133.7,280.5,132.1,279.3,131.1z M243.8,254.4
	h-65.6v-35.2c0-20.1-16.3-36.4-36.4-36.4s-36.4,16.3-36.4,36.4v35.2H39.7V137.6h204.1L243.8,254.4L243.8,254.4z M247.4,130.4H36.1
	H16.7l125-100.2l125,100.2H247.4z"/>
</svg>
