<?xml version="1.0" encoding="utf-8"?>
<!-- Generator: Adobe Illustrator 26.1.0, SVG Export Plug-In . SVG Version: 6.00 Build 0)  -->
<svg version="1.1" id="레이어_1" xmlns="http://www.w3.org/2000/svg" xmlns:xlink="http://www.w3.org/1999/xlink" x="0px"
	 y="0px" viewBox="0 0 283.5 283.5" style="enable-background:new 0 0 283.5 283.5;" xml:space="preserve">
<style type="text/css">
	.st0{stroke:#000000;stroke-width:2.94;stroke-miterlimit:10;}
	.st1{fill:#FFFFFF;}
	.st2{fill:none;}
	.st3{fill:#231815;}
	.st4{fill:#BA3D38;}
</style>
<g>
	<path class="st0" d="M280.5-809.3c0-0.1-0.1-0.1-0.1-0.2c0-0.1-0.1-0.3-0.2-0.4c0-0.1-0.1-0.1-0.1-0.2c-0.1-0.1-0.2-0.2-0.2-0.3
		c-0.1-0.1-0.1-0.1-0.2-0.2c-0.1-0.1-0.1-0.1-0.2-0.2c0,0-0.1,0-0.1,0c0,0,0,0-0.1,0l-51.1-26.1c-0.7-0.4-1.5-0.4-2.2,0L175-810.8
		c0,0,0,0-0.1,0c0,0-0.1,0-0.1,0c-0.1,0.1-0.1,0.1-0.2,0.2c-0.1,0.1-0.1,0.1-0.2,0.2c-0.1,0.1-0.2,0.2-0.2,0.3
		c0,0.1-0.1,0.1-0.1,0.2c-0.1,0.1-0.1,0.3-0.2,0.4c0,0.1-0.1,0.1-0.1,0.2c-0.1,0.2-0.1,0.4-0.1,0.6v37.5h-63.9v-37.5
		c0-0.2,0-0.4-0.1-0.6c0-0.1-0.1-0.1-0.1-0.2c0-0.1-0.1-0.3-0.2-0.4c0-0.1-0.1-0.1-0.1-0.2c-0.1-0.1-0.2-0.2-0.2-0.3
		c-0.1-0.1-0.1-0.1-0.2-0.2c-0.1-0.1-0.1-0.1-0.2-0.2c0,0-0.1,0-0.1,0c0,0,0,0-0.1,0l-51.1-26.1c-0.7-0.4-1.5-0.4-2.2,0L4.1-810.8
		c0,0,0,0-0.1,0c0,0-0.1,0-0.1,0c-0.1,0-0.1,0.1-0.2,0.2c-0.1,0.1-0.1,0.1-0.2,0.2c-0.1,0.1-0.2,0.2-0.2,0.3c0,0.1-0.1,0.1-0.1,0.2
		c-0.1,0.1-0.1,0.3-0.2,0.4c0,0.1-0.1,0.1-0.1,0.2c-0.1,0.2-0.1,0.4-0.1,0.6v63.8c0,0.9,0.5,1.7,1.3,2.1l51.1,26.1
		c0.1,0,0.2,0.1,0.3,0.1c0.1,0,0.1,0.1,0.2,0.1c0.2,0.1,0.4,0.1,0.6,0.1s0.4,0,0.6-0.1c0.1,0,0.1,0,0.2-0.1c0.1,0,0.2-0.1,0.3-0.1
		l51.1-26.1c0.8-0.4,1.3-1.2,1.3-2.1v-21.4h63.9v21.4c0,0.9,0.5,1.7,1.3,2.1l51.1,26.1c0.1,0,0.2,0.1,0.3,0.1c0.1,0,0.1,0.1,0.2,0.1
		c0.2,0.1,0.4,0.1,0.6,0.1s0.4,0,0.6-0.1c0.1,0,0.1,0,0.2-0.1c0.1,0,0.2-0.1,0.3-0.1l51.1-26.1c0.8-0.4,1.3-1.2,1.3-2.1v-63.8
		C280.6-808.9,280.6-809.1,280.5-809.3z M56.3-832l45.8,23.4l-45.8,23.4l-45.8-23.4L56.3-832z M7.7-804.7l46.2,23.6v58.3L7.7-746.4
		V-804.7z M104.9-746.4l-46.2,23.6v-58.3l46.2-23.6v33.6H93.9c-1.3,0-2.4,1.1-2.4,2.4s1.1,2.4,2.4,2.4h11.1V-746.4z M227.2-832
		l45.8,23.4l-45.8,23.4l-45.8-23.4L227.2-832z M178.5-766.3h8.6c1.3,0,2.4-1.1,2.4-2.4s-1.1-2.4-2.4-2.4h-8.6v-33.6l46.2,23.6v58.3
		l-46.2-23.6V-766.3z M229.6-722.7v-58.3l46.2-23.6v58.3L229.6-722.7z"/>
	<path class="st0" d="M87.9-829.5c0.7,0,1.3-0.3,1.8-0.8l21.3-24.5l28.4,14.5c0.1,0,0.2,0.1,0.3,0.1c0.1,0,0.1,0.1,0.2,0.1
		c0.2,0.1,0.4,0.1,0.6,0.1s0.4,0,0.6-0.1c0.1,0,0.1,0,0.2-0.1c0.1,0,0.2-0.1,0.3-0.1l25.1-12.8l19.9,22.9c0.5,0.5,1.1,0.8,1.8,0.8
		c0.6,0,1.1-0.2,1.6-0.6c1-0.9,1.1-2.4,0.2-3.4l-19.1-22l21.5-11c0.8-0.4,1.3-1.2,1.3-2.1v-63.8c0-0.2,0-0.4-0.1-0.6
		c0-0.1-0.1-0.1-0.1-0.2c0-0.1-0.1-0.3-0.2-0.4c0-0.1-0.1-0.1-0.1-0.2c-0.1-0.1-0.1-0.2-0.2-0.3c-0.1-0.1-0.1-0.1-0.2-0.2
		c-0.1-0.1-0.1-0.1-0.2-0.2c0,0-0.1,0-0.1,0c0,0,0,0-0.1,0l-51.1-26.1c-0.7-0.4-1.5-0.4-2.2,0l-51.1,26.1c0,0,0,0-0.1,0.1
		c0,0-0.1,0-0.1,0c-0.1,0-0.1,0.1-0.2,0.2c-0.1,0.1-0.1,0.1-0.2,0.2c-0.1,0.1-0.2,0.2-0.2,0.3c-0.1,0.1-0.1,0.1-0.1,0.2
		c-0.1,0.1-0.1,0.3-0.2,0.4c0,0.1-0.1,0.1-0.1,0.2c-0.1,0.2-0.1,0.4-0.1,0.6v63.8c0,0.9,0.5,1.7,1.3,2.1l18.2,9.3l-20.6,23.6
		c-0.9,1-0.8,2.5,0.2,3.4C86.7-829.7,87.3-829.5,87.9-829.5z M189.2-870l-21.3,10.9l-4.8-5.5c-0.9-1-2.4-1.1-3.4-0.2
		c-1,0.9-1.1,2.4-0.2,3.4l4,4.6l-20.6,10.5v-58.3l46.2-23.6L189.2-870L189.2-870z M140.5-955.7l45.8,23.4l-45.8,23.4l-45.8-23.4
		L140.5-955.7z M91.9-870v-58.3l46.2,23.6v58.3l-23.8-12.2l2.5-2.9c0.9-1,0.8-2.5-0.2-3.4c-1-0.9-2.5-0.8-3.4,0.2l-3.3,3.8L91.9-870
		z"/>
</g>
<g>
	<g>
		<circle class="st1" cx="141.7" cy="-506.1" r="134.2"/>
		<path d="M141.7-367.2c-76.6,0-138.9-62.3-138.9-138.9S65.1-645,141.7-645s138.9,62.3,138.9,138.9S218.3-367.2,141.7-367.2z
			 M141.7-635.5c-71.4,0-129.4,58.1-129.4,129.4s58.1,129.4,129.4,129.4c71.4,0,129.4-58.1,129.4-129.4S213.1-635.5,141.7-635.5z"/>
	</g>
	<g>
		<path class="st1" d="M187.8-552.1h-69.1c-12.7,0-23,10.3-23,23l0,0c0,12.7,10.3,23,23,23h46c12.7,0,23,10.3,23,23l0,0
			c0,12.7-10.3,23-23,23H95.7"/>
		<path d="M164.7-455.3H95.7c-2.6,0-4.7-2.1-4.7-4.7s2.1-4.7,4.7-4.7h69.1c10.1,0,18.3-8.2,18.3-18.3s-8.2-18.3-18.3-18.3h-46
			c-15.3,0-27.8-12.4-27.8-27.7c0-15.3,12.4-27.8,27.8-27.8h69.1c2.6,0,4.7,2.1,4.7,4.7s-2.1,4.7-4.7,4.7h-69.1
			c-10.1,0-18.3,8.2-18.3,18.3s8.2,18.3,18.3,18.3h46c15.3,0,27.8,12.4,27.8,27.8S180.1-455.3,164.7-455.3z"/>
	</g>
	<g>
		<line class="st2" x1="129.9" y1="-582.8" x2="129.9" y2="-429.3"/>
		<path d="M129.9-424.6c-2.6,0-4.7-2.1-4.7-4.7v-153.4c0-2.6,2.1-4.7,4.7-4.7s4.7,2.1,4.7,4.7v153.4
			C134.6-426.7,132.5-424.6,129.9-424.6z"/>
	</g>
	<g>
		<line class="st2" x1="153.6" y1="-582.8" x2="153.6" y2="-429.3"/>
		<path d="M153.6-424.6c-2.6,0-4.7-2.1-4.7-4.7v-153.4c0-2.6,2.1-4.7,4.7-4.7s4.7,2.1,4.7,4.7v153.4
			C158.3-426.7,156.2-424.6,153.6-424.6z"/>
	</g>
</g>
<g>
	<g>
		<path class="st3" d="M241.3-78.6H42.2C20.5-78.6,2.8-96.3,2.8-118v-135c0-21.7,17.6-39.3,39.3-39.3h199.1
			c21.7,0,39.3,17.6,39.3,39.3v135C280.6-96.3,263-78.6,241.3-78.6z M42.2-282.7c-16.4,0-29.7,13.3-29.7,29.7v135
			c0,16.4,13.3,29.7,29.7,29.7h199.1c16.4,0,29.7-13.3,29.7-29.7v-135c0-16.4-13.3-29.7-29.7-29.7H42.2z"/>
	</g>
	<g>
		<path class="st3" d="M275.8-154.3h-67.3c-17.2,0-31.2-14-31.2-31.1s14-31.2,31.2-31.2h67.3c2.7,0,4.8,2.2,4.8,4.8v52.6
			C280.6-156.5,278.5-154.3,275.8-154.3z M208.5-207c-11.9,0-21.5,9.6-21.5,21.5c0,11.9,9.6,21.5,21.5,21.5H271v-43L208.5-207
			L208.5-207z"/>
	</g>
	<g>
		<line class="st2" x1="218.5" y1="-185.5" x2="221.9" y2="-185.5"/>
		<path class="st3" d="M221.9-180.7h-3.4c-2.7,0-4.8-2.2-4.8-4.8s2.2-4.8,4.8-4.8h3.4c2.7,0,4.8,2.2,4.8,4.8
			S224.6-180.7,221.9-180.7z"/>
	</g>
</g>
<g>
	<path class="st4" d="M66.7,115h115.9c2.4,0,4.3-1.9,4.3-4.3s-1.9-4.3-4.3-4.3H66.7c-2.4,0-4.3,1.9-4.3,4.3S64.3,115,66.7,115z"/>
	<path class="st4" d="M66.7,154.1h115.9c2.4,0,4.3-1.9,4.3-4.3s-1.9-4.3-4.3-4.3H66.7c-2.4,0-4.3,1.9-4.3,4.3S64.3,154.1,66.7,154.1
		z"/>
	<path class="st4" d="M186.9,188.9c0-2.4-1.9-4.3-4.3-4.3H66.7c-2.4,0-4.3,1.9-4.3,4.3s1.9,4.3,4.3,4.3h115.9
		C185,193.2,186.9,191.3,186.9,188.9z"/>
	<path class="st4" d="M249,32.4h-71.4L150.9,4.2c0,0,0,0,0,0c-0.1-0.1-0.3-0.2-0.4-0.3c-0.1-0.1-0.2-0.1-0.2-0.2
		c-0.2-0.1-0.4-0.2-0.6-0.3c-0.1,0-0.1-0.1-0.2-0.1c-0.5-0.2-1.1-0.3-1.7-0.3H34.5c-2.4,0-4.3,1.9-4.3,4.3v238.7
		c0,2.4,1.9,4.3,4.3,4.3h33.6v26.2c0,2.4,1.9,4.3,4.3,4.3H249c2.4,0,4.3-1.9,4.3-4.3V36.7C253.3,34.3,251.4,32.4,249,32.4z
		 M152.1,18l56.4,59.6h-56.4V18z M38.8,11.5h104.6v70.4c0,2.4,1.9,4.3,4.3,4.3H213v155.3H38.8V11.5z M244.7,272H76.8v-21.8h140.6
		c2.4,0,4.3-1.9,4.3-4.3V80.7c0-1.1-0.4-2.2-1.2-3L185.8,41h58.9L244.7,272L244.7,272z"/>
</g>
</svg>
