<?xml version="1.0" encoding="utf-8"?>
<!-- Generator: Adobe Illustrator 26.1.0, SVG Export Plug-In . SVG Version: 6.00 Build 0)  -->
<svg version="1.1" baseProfile="tiny" id="레이어_1"
	 xmlns="http://www.w3.org/2000/svg" xmlns:xlink="http://www.w3.org/1999/xlink" x="0px" y="0px" viewBox="0 0 283.465 283.465"
	 overflow="visible" xml:space="preserve">
<g>
	<path stroke="#000000" stroke-width="2.94" stroke-miterlimit="10" d="M280.541-809.272c-0.019-0.068-0.054-0.128-0.078-0.194
		c-0.049-0.133-0.098-0.265-0.17-0.387c-0.041-0.07-0.096-0.129-0.144-0.195c-0.077-0.105-0.153-0.209-0.246-0.301
		c-0.061-0.06-0.133-0.108-0.201-0.162c-0.075-0.059-0.14-0.129-0.223-0.18c-0.029-0.018-0.063-0.025-0.093-0.041
		c-0.025-0.014-0.043-0.035-0.069-0.048l-51.054-26.102c-0.687-0.352-1.505-0.352-2.192,0l-51.054,26.102
		c-0.025,0.013-0.044,0.034-0.069,0.048c-0.03,0.017-0.063,0.023-0.093,0.041c-0.083,0.051-0.148,0.12-0.223,0.179
		c-0.068,0.054-0.14,0.102-0.201,0.162c-0.093,0.092-0.169,0.196-0.246,0.301c-0.048,0.066-0.103,0.125-0.145,0.195
		c-0.071,0.122-0.12,0.253-0.169,0.386c-0.025,0.066-0.06,0.127-0.079,0.195c-0.056,0.205-0.089,0.418-0.089,0.636v37.503h-63.945
		v-37.503c0-0.218-0.032-0.431-0.089-0.636c-0.019-0.068-0.054-0.128-0.078-0.194c-0.049-0.133-0.098-0.265-0.169-0.386
		c-0.042-0.071-0.097-0.13-0.146-0.197c-0.076-0.104-0.151-0.208-0.244-0.299c-0.062-0.061-0.135-0.11-0.204-0.164
		c-0.074-0.059-0.139-0.128-0.221-0.178c-0.029-0.018-0.061-0.024-0.091-0.041c-0.025-0.014-0.044-0.036-0.07-0.049l-51.054-26.102
		c-0.689-0.352-1.504-0.352-2.193,0L4.146-810.78c-0.026,0.013-0.044,0.035-0.069,0.049c-0.029,0.016-0.062,0.023-0.091,0.041
		c-0.082,0.05-0.146,0.119-0.221,0.178c-0.069,0.055-0.142,0.103-0.204,0.164c-0.093,0.091-0.168,0.195-0.244,0.299
		c-0.049,0.066-0.104,0.126-0.146,0.197c-0.071,0.121-0.12,0.253-0.169,0.385c-0.025,0.066-0.06,0.127-0.079,0.196
		c-0.056,0.205-0.089,0.418-0.089,0.636v63.75c0,0.904,0.507,1.732,1.312,2.145l51.054,26.101c0.098,0.05,0.204,0.077,0.307,0.113
		c0.061,0.021,0.119,0.051,0.182,0.067c0.2,0.052,0.403,0.083,0.607,0.083c0.204,0,0.408-0.031,0.607-0.083
		c0.063-0.016,0.121-0.046,0.183-0.068c0.103-0.036,0.207-0.062,0.306-0.113l51.054-26.101c0.806-0.413,1.312-1.241,1.312-2.145
		v-21.43h63.945v21.43c0,0.904,0.507,1.732,1.312,2.145l51.054,26.101c0.098,0.05,0.204,0.077,0.307,0.113
		c0.061,0.021,0.119,0.051,0.182,0.067c0.2,0.052,0.403,0.083,0.607,0.083s0.408-0.031,0.607-0.083
		c0.063-0.016,0.12-0.046,0.182-0.067c0.103-0.036,0.208-0.063,0.307-0.113l51.054-26.101c0.806-0.413,1.312-1.241,1.312-2.145
		v-63.75C280.63-808.854,280.598-809.067,280.541-809.272z M56.297-832.033l45.763,23.397l-45.763,23.396l-45.763-23.396
		L56.297-832.033z M7.651-804.7l46.237,23.638v58.34L7.651-746.36V-804.7z M104.942-746.36l-46.237,23.638v-58.34l46.237-23.638
		v33.567H93.871c-1.33,0-2.408,1.078-2.408,2.408s1.078,2.408,2.408,2.408h11.071V-746.36z M227.167-832.033l45.764,23.397
		l-45.764,23.396l-45.764-23.396L227.167-832.033z M178.521-766.316h8.649c1.33,0,2.408-1.078,2.408-2.408s-1.078-2.408-2.408-2.408
		h-8.649V-804.7l46.238,23.638v58.34l-46.238-23.638V-766.316z M229.575-722.722v-58.34l46.238-23.638v58.34L229.575-722.722z"/>
	<path stroke="#000000" stroke-width="2.94" stroke-miterlimit="10" d="M87.872-829.47c0.673,0,1.342-0.28,1.819-0.828
		l21.338-24.535l28.396,14.517c0.098,0.05,0.204,0.077,0.307,0.113c0.061,0.021,0.119,0.051,0.182,0.067
		c0.2,0.052,0.403,0.083,0.607,0.083s0.408-0.031,0.607-0.083c0.063-0.016,0.12-0.046,0.182-0.067
		c0.103-0.036,0.208-0.063,0.307-0.113l25.127-12.846l19.885,22.864c0.476,0.548,1.145,0.828,1.818,0.828
		c0.56,0,1.123-0.194,1.579-0.591c1.003-0.872,1.11-2.394,0.236-3.397l-19.101-21.962l21.509-10.997
		c0.805-0.412,1.312-1.24,1.312-2.144v-63.75c0-0.218-0.032-0.431-0.089-0.636c-0.019-0.068-0.054-0.129-0.079-0.195
		c-0.049-0.132-0.098-0.264-0.169-0.385c-0.042-0.072-0.098-0.132-0.147-0.199c-0.076-0.103-0.15-0.206-0.242-0.296
		c-0.063-0.062-0.137-0.112-0.207-0.167c-0.074-0.058-0.137-0.126-0.218-0.175c-0.029-0.017-0.061-0.024-0.09-0.04
		c-0.026-0.014-0.045-0.036-0.071-0.05l-51.054-26.101c-0.687-0.352-1.505-0.352-2.192,0L88.37-934.455
		c-0.027,0.014-0.046,0.036-0.072,0.051c-0.029,0.016-0.06,0.022-0.088,0.039c-0.08,0.049-0.143,0.116-0.215,0.173
		c-0.072,0.056-0.146,0.106-0.21,0.169c-0.091,0.09-0.165,0.192-0.24,0.294c-0.05,0.068-0.107,0.129-0.149,0.201
		c-0.071,0.121-0.119,0.251-0.168,0.383c-0.025,0.067-0.061,0.128-0.08,0.198c-0.056,0.205-0.089,0.418-0.089,0.636v63.75
		c0,0.904,0.507,1.733,1.312,2.144l18.24,9.325l-20.554,23.633c-0.873,1.003-0.767,2.525,0.237,3.397
		C86.749-829.664,87.311-829.47,87.872-829.47z M189.166-870.034l-21.262,10.87l-4.764-5.477c-0.873-1.002-2.392-1.109-3.397-0.237
		c-1.003,0.873-1.11,2.394-0.236,3.398l3.979,4.575l-20.558,10.51v-58.341l46.238-23.638V-870.034z M140.52-955.707l45.764,23.396
		l-45.764,23.396l-45.763-23.396L140.52-955.707z M91.875-870.034v-58.34l46.237,23.638v58.341l-23.827-12.181l2.526-2.904
		c0.873-1.004,0.767-2.525-0.237-3.398c-1.005-0.874-2.525-0.767-3.398,0.237l-3.31,3.806L91.875-870.034z"/>
</g>
<g>
	<g>
		<circle fill="#FFFFFF" cx="141.732" cy="-506.057" r="134.164"/>
		<path d="M141.732-367.16c-76.588,0-138.897-62.31-138.897-138.898s62.309-138.898,138.897-138.898s138.898,62.31,138.898,138.898
			S218.32-367.16,141.732-367.16z M141.732-635.489c-71.368,0-129.431,58.063-129.431,129.432s58.063,129.432,129.431,129.432
			c71.369,0,129.432-58.063,129.432-129.432S213.101-635.489,141.732-635.489z"/>
	</g>
	<g>
		<path fill="#FFFFFF" d="M187.766-552.091h-69.051c-12.712,0-23.017,10.305-23.017,23.017v0c0,12.712,10.305,23.017,23.017,23.017
			h46.034c12.712,0,23.017,10.305,23.017,23.017v0c0,12.712-10.305,23.017-23.017,23.017H95.698"/>
		<path d="M164.749-455.29H95.698c-2.614,0-4.733-2.119-4.733-4.733s2.119-4.733,4.733-4.733h69.051
			c10.082,0,18.284-8.202,18.284-18.284c0-10.082-8.202-18.284-18.284-18.284h-46.034c-15.301,0-27.75-12.448-27.75-27.749
			c0-15.302,12.449-27.75,27.75-27.75h69.051c2.614,0,4.733,2.119,4.733,4.733s-2.119,4.733-4.733,4.733h-69.051
			c-10.082,0-18.284,8.202-18.284,18.284s8.202,18.283,18.284,18.283h46.034c15.302,0,27.75,12.448,27.75,27.75
			S180.051-455.29,164.749-455.29z"/>
	</g>
	<g>
		<line fill="#FFFFFF" x1="129.852" y1="-582.78" x2="129.852" y2="-429.334"/>
		<path d="M129.851-424.602c-2.614,0-4.733-2.119-4.733-4.733v-153.446c0-2.614,2.119-4.733,4.733-4.733
			c2.614,0,4.733,2.119,4.733,4.733v153.446C134.584-426.72,132.465-424.602,129.851-424.602z"/>
	</g>
	<g>
		<line fill="#FFFFFF" x1="153.613" y1="-582.78" x2="153.613" y2="-429.334"/>
		<path d="M153.613-424.602c-2.614,0-4.733-2.119-4.733-4.733v-153.446c0-2.614,2.119-4.733,4.733-4.733s4.733,2.119,4.733,4.733
			v153.446C158.346-426.72,156.227-424.602,153.613-424.602z"/>
	</g>
</g>
<g>
	<g>
		<path fill="#231815" d="M241.285-78.622H42.18c-21.695,0-39.345-17.65-39.345-39.345v-135.04c0-21.696,17.65-39.345,39.345-39.345
			h199.105c21.695,0,39.344,17.65,39.344,39.345v135.04C280.63-96.272,262.98-78.622,241.285-78.622z M42.18-282.701
			c-16.373,0-29.693,13.32-29.693,29.693v135.04c0,16.373,13.32,29.693,29.693,29.693h199.105c16.373,0,29.692-13.32,29.692-29.693
			v-135.04c0-16.373-13.319-29.693-29.692-29.693H42.18z"/>
	</g>
	<g>
		<path fill="#231815" d="M275.804-154.337h-67.311c-17.177,0-31.151-13.974-31.151-31.15s13.975-31.151,31.151-31.151h67.311
			c2.666,0,4.826,2.161,4.826,4.826v52.649C280.63-156.498,278.469-154.337,275.804-154.337z M208.492-206.986
			c-11.855,0-21.499,9.644-21.499,21.499c0,11.854,9.644,21.498,21.499,21.498h62.485v-42.996H208.492z"/>
	</g>
	<g>
		<line fill="#231815" x1="218.455" y1="-185.488" x2="221.887" y2="-185.488"/>
		<path fill="#231815" d="M221.887-180.661h-3.432c-2.666,0-4.826-2.161-4.826-4.826s2.161-4.826,4.826-4.826h3.432
			c2.666,0,4.826,2.161,4.826,4.826S224.553-180.661,221.887-180.661z"/>
	</g>
</g>
<g>
	<path fill="#211815" d="M66.681,115.001h115.883c2.388,0,4.324-1.935,4.324-4.324s-1.935-4.324-4.324-4.324H66.681
		c-2.388,0-4.324,1.935-4.324,4.324S64.292,115.001,66.681,115.001z"/>
	<path fill="#211815" d="M66.681,154.107h115.883c2.388,0,4.324-1.935,4.324-4.324s-1.935-4.324-4.324-4.324H66.681
		c-2.388,0-4.324,1.935-4.324,4.324S64.292,154.107,66.681,154.107z"/>
	<path fill="#211815" d="M186.887,188.891c0-2.388-1.935-4.324-4.324-4.324H66.681c-2.388,0-4.324,1.935-4.324,4.324
		s1.935,4.324,4.324,4.324h115.883C184.952,193.215,186.887,191.279,186.887,188.891z"/>
	<path fill="#211815" d="M248.989,32.39h-71.383L150.911,4.186c-0.014-0.015-0.031-0.025-0.045-0.039
		c-0.125-0.128-0.266-0.237-0.406-0.35c-0.083-0.066-0.158-0.143-0.245-0.202c-0.178-0.122-0.372-0.221-0.568-0.316
		c-0.06-0.029-0.114-0.069-0.175-0.095c-0.522-0.224-1.096-0.349-1.7-0.349H34.475c-2.388,0-4.324,1.935-4.324,4.324v238.667
		c0,2.388,1.935,4.324,4.324,4.324h33.633v26.158c0,2.388,1.935,4.324,4.324,4.324h176.557c2.388,0,4.324-1.935,4.324-4.324V36.714
		C253.313,34.326,251.378,32.39,248.989,32.39z M152.094,18.016l56.394,59.582h-56.394V18.016z M38.799,11.482h104.649v70.44
		c0,2.388,1.935,4.324,4.324,4.324h65.264v155.256H38.799V11.482z M244.666,271.983H76.756v-21.834h140.603
		c2.388,0,4.324-1.935,4.324-4.324V80.681c0-1.106-0.424-2.169-1.184-2.972L185.79,41.037h58.876V271.983z"/>
</g>
</svg>
