<?xml version="1.0" encoding="utf-8"?>
<!-- Generator: Adobe Illustrator 26.1.0, SVG Export Plug-In . SVG Version: 6.00 Build 0)  -->
<svg version="1.1" id="레이어_1" xmlns="http://www.w3.org/2000/svg" xmlns:xlink="http://www.w3.org/1999/xlink" x="0px"
	 y="0px" viewBox="0 0 283.5 283.5" style="enable-background:new 0 0 283.5 283.5;" xml:space="preserve">
<style type="text/css">
	.st0{stroke:#000000;stroke-width:2.94;stroke-miterlimit:10;}
	.st1{fill:none;}
	.st2{fill:#C53E39;}
	.st3{fill:#BA3D38;}
	.st4{fill:#231815;}
	.st5{fill:#211815;}
</style>
<g>
	<path class="st0" d="M280.5-161.5c0-0.1-0.1-0.1-0.1-0.2c0-0.1-0.1-0.3-0.2-0.4c0-0.1-0.1-0.1-0.1-0.2c-0.1-0.1-0.2-0.2-0.2-0.3
		c-0.1-0.1-0.1-0.1-0.2-0.2c-0.1-0.1-0.1-0.1-0.2-0.2c0,0-0.1,0-0.1,0c0,0,0,0-0.1,0l-51.1-26.1c-0.7-0.4-1.5-0.4-2.2,0L175-163
		c0,0,0,0-0.1,0c0,0-0.1,0-0.1,0c-0.1,0.1-0.1,0.1-0.2,0.2c-0.1,0.1-0.1,0.1-0.2,0.2c-0.1,0.1-0.2,0.2-0.2,0.3
		c0,0.1-0.1,0.1-0.1,0.2c-0.1,0.1-0.1,0.3-0.2,0.4c0,0.1-0.1,0.1-0.1,0.2c-0.1,0.2-0.1,0.4-0.1,0.6v37.5h-63.9v-37.5
		c0-0.2,0-0.4-0.1-0.6c0-0.1-0.1-0.1-0.1-0.2c0-0.1-0.1-0.3-0.2-0.4c0-0.1-0.1-0.1-0.1-0.2c-0.1-0.1-0.2-0.2-0.2-0.3
		c-0.1-0.1-0.1-0.1-0.2-0.2c-0.1-0.1-0.1-0.1-0.2-0.2c0,0-0.1,0-0.1,0c0,0,0,0-0.1,0l-51.1-26.1c-0.7-0.4-1.5-0.4-2.2,0L4.1-163
		c0,0,0,0-0.1,0c0,0-0.1,0-0.1,0c-0.1,0.1-0.1,0.1-0.2,0.2c-0.1,0.1-0.1,0.1-0.2,0.2c-0.1,0.1-0.2,0.2-0.2,0.3
		c0,0.1-0.1,0.1-0.1,0.2c-0.1,0.1-0.1,0.3-0.2,0.4c0,0.1-0.1,0.1-0.1,0.2c-0.1,0.2-0.1,0.4-0.1,0.6v63.8c0,0.9,0.5,1.7,1.3,2.1
		l51.1,26.1c0.1,0.1,0.2,0.1,0.3,0.1c0.1,0,0.1,0.1,0.2,0.1c0.2,0.1,0.4,0.1,0.6,0.1s0.4,0,0.6-0.1c0.1,0,0.1,0,0.2-0.1
		c0.1,0,0.2-0.1,0.3-0.1L108.4-95c0.8-0.4,1.3-1.2,1.3-2.1v-21.4h63.9v21.4c0,0.9,0.5,1.7,1.3,2.1l51.1,26.1
		c0.1,0.1,0.2,0.1,0.3,0.1c0.1,0,0.1,0.1,0.2,0.1c0.2,0.1,0.4,0.1,0.6,0.1s0.4,0,0.6-0.1c0.1,0,0.1,0,0.2-0.1c0.1,0,0.2-0.1,0.3-0.1
		L279.3-95c0.8-0.4,1.3-1.2,1.3-2.1v-63.7C280.6-161.1,280.6-161.3,280.5-161.5z M56.3-184.2l45.8,23.4l-45.8,23.4l-45.8-23.4
		L56.3-184.2z M7.7-156.9l46.2,23.6v58.3L7.7-98.6V-156.9z M104.9-98.6L58.7-74.9v-58.3l46.2-23.6v33.6H93.9c-1.3,0-2.4,1.1-2.4,2.4
		s1.1,2.4,2.4,2.4h11.1V-98.6z M227.2-184.2l45.8,23.4l-45.8,23.4l-45.8-23.4L227.2-184.2z M178.5-118.5h8.6c1.3,0,2.4-1.1,2.4-2.4
		s-1.1-2.4-2.4-2.4h-8.6v-33.6l46.2,23.6v58.3l-46.2-23.6V-118.5z M229.6-74.9v-58.3l46.2-23.6v58.3L229.6-74.9z"/>
	<path class="st0" d="M87.9-181.7c0.7,0,1.3-0.3,1.8-0.8L111-207l28.4,14.5c0.1,0.1,0.2,0.1,0.3,0.1c0.1,0,0.1,0.1,0.2,0.1
		c0.2,0.1,0.4,0.1,0.6,0.1s0.4,0,0.6-0.1c0.1,0,0.1,0,0.2-0.1c0.1,0,0.2-0.1,0.3-0.1l25.1-12.8l19.9,22.9c0.5,0.5,1.1,0.8,1.8,0.8
		c0.6,0,1.1-0.2,1.6-0.6c1-0.9,1.1-2.4,0.2-3.4l-19.1-22l21.5-11c0.8-0.4,1.3-1.2,1.3-2.1v-63.7c0-0.2,0-0.4-0.1-0.6
		c0-0.1-0.1-0.1-0.1-0.2c0-0.1-0.1-0.3-0.2-0.4c0-0.1-0.1-0.1-0.1-0.2c-0.1-0.1-0.1-0.2-0.2-0.3c-0.1-0.1-0.1-0.1-0.2-0.2
		c-0.1-0.1-0.1-0.1-0.2-0.2c0,0-0.1,0-0.1,0c0,0,0,0-0.1,0l-51.1-26.1c-0.7-0.4-1.5-0.4-2.2,0l-51.1,26.1c0,0,0,0-0.1,0.1
		c0,0-0.1,0-0.1,0c-0.1,0-0.1,0.1-0.2,0.2c-0.1,0.1-0.1,0.1-0.2,0.2c-0.1,0.1-0.2,0.2-0.2,0.3c-0.1,0.1-0.1,0.1-0.1,0.2
		c-0.1,0.1-0.1,0.3-0.2,0.4c0,0.1-0.1,0.1-0.1,0.2c-0.1,0.2-0.1,0.4-0.1,0.6v63.7c0,0.9,0.5,1.7,1.3,2.1l18.2,9.3l-20.6,23.6
		c-0.9,1-0.8,2.5,0.2,3.4C86.7-181.9,87.3-181.7,87.9-181.7z M189.2-222.2l-21.3,10.9l-4.8-5.5c-0.9-1-2.4-1.1-3.4-0.2
		c-1,0.9-1.1,2.4-0.2,3.4l4,4.6l-20.6,10.5v-58.3l46.2-23.6L189.2-222.2L189.2-222.2z M140.5-307.9l45.8,23.4l-45.8,23.4l-45.8-23.4
		L140.5-307.9z M91.9-222.2v-58.3l46.2,23.6v58.3l-23.8-12.2l2.5-2.9c0.9-1,0.8-2.5-0.2-3.4c-1-0.9-2.5-0.8-3.4,0.2l-3.3,3.8
		L91.9-222.2z"/>
</g>
<g>
	<g>
		<circle class="st1" cx="141.7" cy="141.7" r="134.2"/>
		<path class="st2" d="M141.7,280.6c-76.6,0-138.9-62.3-138.9-138.9S65.1,2.8,141.7,2.8s138.9,62.3,138.9,138.9
			S218.3,280.6,141.7,280.6z M141.7,12.3c-71.4,0-129.4,58.1-129.4,129.4s58.1,129.4,129.4,129.4c71.4,0,129.4-58.1,129.4-129.4
			S213.1,12.3,141.7,12.3z"/>
	</g>
	<g>
		<path class="st3" d="M164.7,192.5H95.7c-2.6,0-4.7-2.1-4.7-4.7s2.1-4.7,4.7-4.7h69.1c10.1,0,18.3-8.2,18.3-18.3
			s-8.2-18.3-18.3-18.3h-46c-15.3,0-27.8-12.4-27.8-27.7c0-15.3,12.4-27.8,27.8-27.8h69.1c2.6,0,4.7,2.1,4.7,4.7s-2.1,4.7-4.7,4.7
			h-69.1c-10.1,0-18.3,8.2-18.3,18.3s8.2,18.3,18.3,18.3h46c15.3,0,27.8,12.4,27.8,27.8S180.1,192.5,164.7,192.5z"/>
	</g>
	<g>
		<line class="st2" x1="129.9" y1="65" x2="129.9" y2="218.5"/>
		<path class="st2" d="M129.9,223.2c-2.6,0-4.7-2.1-4.7-4.7V65c0-2.6,2.1-4.7,4.7-4.7s4.7,2.1,4.7,4.7v153.4
			C134.6,221.1,132.5,223.2,129.9,223.2z"/>
	</g>
	<g>
		<line class="st2" x1="153.6" y1="65" x2="153.6" y2="218.5"/>
		<path class="st2" d="M153.6,223.2c-2.6,0-4.7-2.1-4.7-4.7V65c0-2.6,2.1-4.7,4.7-4.7s4.7,2.1,4.7,4.7v153.4
			C158.3,221.1,156.2,223.2,153.6,223.2z"/>
	</g>
</g>
<g>
	<g>
		<path class="st4" d="M241.3,569.2H42.2c-21.7,0-39.3-17.7-39.3-39.3v-135c0-21.7,17.6-39.3,39.3-39.3h199.1
			c21.7,0,39.3,17.6,39.3,39.3v135C280.6,551.5,263,569.2,241.3,569.2z M42.2,365.1c-16.4,0-29.7,13.3-29.7,29.7v135
			c0,16.4,13.3,29.7,29.7,29.7h199.1c16.4,0,29.7-13.3,29.7-29.7v-135c0-16.4-13.3-29.7-29.7-29.7H42.2z"/>
	</g>
	<g>
		<path class="st4" d="M275.8,493.5h-67.3c-17.2,0-31.2-14-31.2-31.1c0-17.2,14-31.2,31.2-31.2h67.3c2.7,0,4.8,2.2,4.8,4.8v52.6
			C280.6,491.3,278.5,493.5,275.8,493.5z M208.5,440.8c-11.9,0-21.5,9.6-21.5,21.5c0,11.9,9.6,21.5,21.5,21.5H271v-43L208.5,440.8
			L208.5,440.8z"/>
	</g>
	<g>
		<line class="st1" x1="218.5" y1="462.3" x2="221.9" y2="462.3"/>
		<path class="st4" d="M221.9,467.1h-3.4c-2.7,0-4.8-2.2-4.8-4.8s2.2-4.8,4.8-4.8h3.4c2.7,0,4.8,2.2,4.8,4.8
			S224.6,467.1,221.9,467.1z"/>
	</g>
</g>
<g>
	<path class="st5" d="M66.7,762.8h115.9c2.4,0,4.3-1.9,4.3-4.3c0-2.4-1.9-4.3-4.3-4.3H66.7c-2.4,0-4.3,1.9-4.3,4.3
		S64.3,762.8,66.7,762.8z"/>
	<path class="st5" d="M66.7,801.9h115.9c2.4,0,4.3-1.9,4.3-4.3c0-2.4-1.9-4.3-4.3-4.3H66.7c-2.4,0-4.3,1.9-4.3,4.3
		C62.4,800,64.3,801.9,66.7,801.9z"/>
	<path class="st5" d="M186.9,836.7c0-2.4-1.9-4.3-4.3-4.3H66.7c-2.4,0-4.3,1.9-4.3,4.3c0,2.4,1.9,4.3,4.3,4.3h115.9
		C185,841,186.9,839.1,186.9,836.7z"/>
	<path class="st5" d="M249,680.2h-71.4L150.9,652c0,0,0,0,0,0c-0.1-0.1-0.3-0.2-0.4-0.3c-0.1-0.1-0.2-0.1-0.2-0.2
		c-0.2-0.1-0.4-0.2-0.6-0.3c-0.1,0-0.1-0.1-0.2-0.1c-0.5-0.2-1.1-0.3-1.7-0.3H34.5c-2.4,0-4.3,1.9-4.3,4.3v238.7
		c0,2.4,1.9,4.3,4.3,4.3h33.6v26.2c0,2.4,1.9,4.3,4.3,4.3H249c2.4,0,4.3-1.9,4.3-4.3V684.5C253.3,682.1,251.4,680.2,249,680.2z
		 M152.1,665.8l56.4,59.6h-56.4V665.8z M38.8,659.3h104.6v70.4c0,2.4,1.9,4.3,4.3,4.3H213v155.3H38.8V659.3z M244.7,919.8H76.8
		v-21.8h140.6c2.4,0,4.3-1.9,4.3-4.3V728.5c0-1.1-0.4-2.2-1.2-3l-34.7-36.7h58.9L244.7,919.8L244.7,919.8z"/>
</g>
<g id="OzS4PO.tif">
	
		<image style="overflow:visible;" width="414" height="226" id="Layer_0" xlink:href="22165EC7ED4A384C.png"  transform="matrix(0.5 0 0 0.5 -365.7675 120.2325)">
	</image>
</g>
</svg>
