<?xml version="1.0" encoding="utf-8"?>
<!-- Generator: Adobe Illustrator 26.1.0, SVG Export Plug-In . SVG Version: 6.00 Build 0)  -->
<svg version="1.1" id="레이어_1" xmlns="http://www.w3.org/2000/svg" xmlns:xlink="http://www.w3.org/1999/xlink" x="0px"
	 y="0px" viewBox="0 0 399.4 119.1" style="enable-background:new 0 0 399.4 119.1;" xml:space="preserve">
<style type="text/css">
	.st0{fill:none;}
	.st1{fill:#D52E30;}
	.st2{fill:#3C3030;}
	.st3{fill:#3D3131;}
	.st4{fill:#3B2F2F;}
	.st5{fill:#FFB600;}
</style>
<path class="st0" d="M-1268.3,287.6c91.8,0,166.2-70.6,166.2-157.6s-74.4-157.6-166.2-157.6c-64.1,0-119.7,34.4-147.4,84.8
	l-4.9,135.8C-1394.9,248.7-1336.4,287.6-1268.3,287.6z"/>
<g>
	<g>
		<g>
			<path class="st1" d="M53.7,28.1c0,0-2.1,3.7-2.2,6.7c0.7-0.1,5.7-1.8,10.5-0.9L53.7,28.1z"/>
		</g>
		<g>
			<path class="st1" d="M59.9,0C27,0,0.4,26.7,0.4,59.5c0,3.1,0.2,6.2,0.7,9.2c-1.8-21.9,8.5-35.2,8.5-35.2l0,0
				c9.2-16.8,27.7-28.2,49-28.2c30.5,0,55.3,23.5,55.3,52.4c0,17.3-8.9,32.7-22.6,42.3l0,0c-22,0.9-26.8-17.4-26.8-17.4
				C55.5,82.4,48,95.3,48,95.3c10.1-24.8,27.5-18.6,32.7-16.1c1.1,0.6,2.4,0.7,3.7,0.4c7.9-2,11.1-7.8,11.1-7.8l4-8.2
				c0.4-0.9,0.7-1.9,0.7-3v-0.5c0-1.7-0.9-3.2-2.4-3.9c-5.1-2.6-16.6-8.7-16.7-9.7c-0.1-0.7-1.1-3-2.1-5c-1.1-2.2-3-3.8-5.4-4.5
				C62.4,33.8,51.3,37,51.3,37l-12.2-6.6c-5.4,13.8,6.1,23.8,6.1,23.8c-10.6-4-11.1-10.7-11.1-10.7C8.2,58.7,6.7,87.6,6.7,87.6l0,0
				c10,18.7,29.7,31.5,52.4,31.5c0.2,0,0.3,0,0.5,0c0.1,0,0.2,0,0.3,0c32.9,0,59.5-26.7,59.5-59.5S92.8,0,59.9,0z M69.4,46.1
				l9.2,6.5C78.7,52.6,68,54.1,69.4,46.1z"/>
		</g>
	</g>
	<g>
		<rect x="170" y="37.7" class="st1" width="9.3" height="43.3"/>
	</g>
	<g>
		<polygon class="st1" points="233.3,71.7 233.3,37.7 224,37.7 224,71.7 224,81 233.3,81 247.9,81 247.9,71.7 		"/>
	</g>
	<g>
		<polygon class="st1" points="208,37.7 208,62.7 195.4,37.6 186.1,37.6 186.1,80.9 195.4,80.9 195.4,56 208,81 217.3,81 
			217.3,37.7 		"/>
	</g>
	<g>
		<path class="st1" d="M163.1,47v-9.3h-14.6v0h0c-5.1,0-9.3,4.2-9.3,9.3v6.9v9.3V81h9.3V63.2h14.6v-9.3h-14.6V47H163.1z"/>
	</g>
	<g>
		<polygon class="st2" points="389.8,37.9 389.8,62.8 377.2,37.8 367.9,37.8 367.9,81.1 377.2,81.1 377.2,56.1 389.8,81.2 
			399.1,81.2 399.1,37.9 		"/>
	</g>
	<g>
		<path class="st3" d="M305.9,44h3.2c2.1,0,3.8,1.7,3.8,3.8l0.1,5.6h9.7v-6.8c0-4.9-3.9-8.8-8.8-8.8H303c-5.2,0-9.5,4.1-9.8,9.3
			c-0.3,2.4-1.4,13.9,0,25.5l0-1.1c0.1,5.4,4.4,9.7,9.8,9.7h10.9c4.9,0,8.8-3.9,8.8-8.8v-7.1h-10.2v5.4c0,1.9-1.6,3.5-3.5,3.5h-3.4
			c-1.9,0-3.5-1.6-3.5-3.5V47.8C302.1,45.7,303.8,44,305.9,44z"/>
	</g>
	<g>
		<g>
			<path class="st2" d="M341.8,38.5h7.1l13.6,36.7c1.2,3.5,0.8,5.2-1.4,5.2h-5.3l-3.1-9.4h-14.9l-2.2,5.9c-0.8,2.4-2.4,3.6-4.7,3.6
				h-4.5L341.8,38.5z M345.3,46.6l-5.8,18.5H351L345.3,46.6z"/>
			<path class="st4" d="M361.1,81.1h-5.8l-3.1-9.4h-13.9l-2,5.4c-0.9,2.6-2.7,4-5.4,4h-5.5l16-43.2h8L363.1,75
				c0.9,2.5,0.9,4.1,0.2,5.1C362.9,80.8,362.1,81.1,361.1,81.1z M356.3,79.8h4.9c0.8,0,1.1-0.3,1.1-0.4c0.2-0.3,0.5-1.3-0.4-3.9
				l-13.4-36.3h-6.2l-15,40.6h3.6c2.1,0,3.4-1,4.1-3.1l2.4-6.3h15.8L356.3,79.8z M351.9,65.8h-13.2l6.7-21.4L351.9,65.8z
				 M340.5,64.5h9.6l-4.8-15.6L340.5,64.5z"/>
		</g>
	</g>
	<g>
		<g>
			<path class="st2" d="M275.4,51.4v-6.5c0.1-1.2-1-1.8-3.1-1.8h-2.9c-2.3,0-3.4,0.6-3.2,1.9v10.3c0,0.8,0.3,1.3,0.8,1.5
				c0.6,0.3,1.3,0.5,2.2,0.8l12.6,2.3c1.8,0.6,3,1.2,3.5,1.9c0.5,0.6,0.7,1.6,0.7,2.9v8.6c0,4.7-4.1,7.1-12.2,7.1h-6.2
				c-8,0-12.1-2.6-12.1-7.7v-3.2h10.1v4.5c0,1.2,1,1.8,3,1.8h4.3c2,0,3-0.6,2.9-1.8v-8.5c0-0.8-0.2-1.3-0.7-1.5
				c-0.5-0.3-1.1-0.5-1.8-0.7l-12.7-2.6c-1.1-0.4-2-0.8-2.6-1.2c-0.6-0.4-1.1-0.7-1.4-1.1c-0.3-0.4-0.5-0.8-0.5-1.2
				c-0.1-0.4-0.1-0.9-0.1-1.5v-10c0-4.8,4-7.2,12.1-7.2h5.3c8,0,12.1,2.4,12.1,7.2v5.8H275.4z"/>
			<path class="st2" d="M273.7,81h-6.2c-8.4,0-12.7-2.8-12.7-8.4v-3.9h11.4v5.2c0,0.3,0,1.1,2.4,1.1h4.3c1.4,0,1.9-0.3,2.1-0.5
				c0.1-0.1,0.2-0.2,0.2-0.6l0,0v-8.5c0-0.5-0.1-0.8-0.3-1c-0.4-0.2-1-0.4-1.7-0.7l-12.7-2.6l-0.1,0c-1.2-0.4-2.1-0.9-2.7-1.2
				c-0.7-0.4-1.2-0.8-1.6-1.3c-0.3-0.5-0.6-1-0.6-1.5c-0.1-0.5-0.1-1-0.1-1.6v-10c0-5.2,4.3-7.9,12.7-7.9h5.3
				c8.4,0,12.7,2.6,12.7,7.9v6.5h-11.4l0-7.2c0-0.3-0.1-0.5-0.2-0.6c-0.2-0.2-0.7-0.5-2.3-0.5h-2.9c-1.7,0-2.3,0.4-2.4,0.6
				c-0.1,0.1-0.2,0.2-0.1,0.6l0,0.1v10.3c0,0.7,0.3,0.9,0.4,0.9c0.5,0.2,1.2,0.5,2.1,0.7l12.6,2.4c2,0.7,3.2,1.4,3.8,2.1
				c0.6,0.8,0.9,1.8,0.9,3.3v8.6C286.5,78.4,282.2,81,273.7,81z M256.1,70v2.5c0,4.7,3.7,7,11.4,7h6.2c7.7,0,11.5-2.1,11.5-6.4v-8.6
				c0-1.1-0.2-2-0.6-2.5c-0.3-0.4-1-0.9-3.1-1.6l-12.6-2.3c-0.9-0.3-1.7-0.6-2.3-0.8c-0.6-0.3-1.2-0.8-1.2-2.2V44.9
				c-0.1-0.6,0.1-1.1,0.5-1.6c0.6-0.7,1.7-1,3.4-1h2.9c1.6,0,2.7,0.3,3.3,1c0.4,0.4,0.6,0.9,0.5,1.5v5.9h8.7v-5.2
				c0-4.4-3.7-6.5-11.4-6.5H268c-7.7,0-11.4,2.1-11.4,6.5v10c0,0.5,0,1,0.1,1.4c0.1,0.3,0.2,0.6,0.4,0.9c0.2,0.3,0.6,0.6,1.2,0.9
				c0.6,0.3,1.4,0.7,2.5,1.1l12.7,2.6c0.8,0.2,1.5,0.5,2,0.8c0.5,0.3,1,0.8,1,2.1v8.5c0,0.6-0.2,1.1-0.5,1.5
				c-0.6,0.6-1.6,0.9-3.1,0.9h-4.3c-1.7,0-3.7-0.4-3.7-2.4V70H256.1z"/>
		</g>
	</g>
</g>
<g>
	<path class="st5" d="M148.8,25.9h-6v6.5h-2.6V17.8h2.6v5.9h6v-5.9h2.6v14.6h-2.6V25.9z"/>
	<path class="st5" d="M154,29.5v-0.6c0-1.8,1.1-3.2,4.2-3.2h2.5v-0.4c0-1.4-0.6-1.9-2-1.9c-1.2,0-2.2,0.4-3.2,1.1l-1.3-1.9
		c1.1-0.8,2.5-1.5,4.4-1.5c2.6,0,4.5,1.3,4.5,3.6v7.8H161l0-1.4c-0.4,1-2,1.5-3.2,1.5C155.4,32.6,154,31.4,154,29.5z M160.8,27.6
		h-2.5c-1.3,0-1.8,0.5-1.8,1.4v0.2c0,0.7,0.5,1.2,1.5,1.2c1.1,0,1.8-0.2,2.3-0.7c0.5-0.4,0.5-0.9,0.5-1.8V27.6z"/>
	<path class="st5" d="M166.2,17.1h2.5v15.3h-2.5V17.1z"/>
	<path class="st5" d="M171.8,17.1h2.5v15.3h-2.5V17.1z"/>
	<path class="st5" d="M176.8,29.5v-0.6c0-1.8,1.1-3.2,4.2-3.2h2.5v-0.4c0-1.4-0.6-1.9-2-1.9c-1.2,0-2.2,0.4-3.2,1.1l-1.3-1.9
		c1.1-0.8,2.5-1.5,4.4-1.5c2.6,0,4.5,1.3,4.5,3.6v7.8h-2.3l0-1.4c-0.4,1-2,1.5-3.2,1.5C178.2,32.6,176.8,31.4,176.8,29.5z
		 M183.5,27.6h-2.5c-1.3,0-1.8,0.5-1.8,1.4v0.2c0,0.7,0.5,1.2,1.5,1.2c1.1,0,1.8-0.2,2.3-0.7c0.5-0.4,0.5-0.9,0.5-1.8V27.6z"/>
</g>
</svg>
