<svg width="1413" height="435" viewBox="0 0 1413 435" fill="none" xmlns="http://www.w3.org/2000/svg">
<g clip-path="url(#clip0_516_34)">
<path d="M243.6 127.9C243.6 127.9 237.3 138.9 236.9 148.1C238.9 147.7 253.9 142.6 268.6 145.4L243.6 127.9Z" fill="#D52E30"/>
<path d="M262.4 43.3999C163.6 43.3999 83.4 123.5 83.4 222.4C83.4 231.8 84.1 241 85.5 250C80.1 184 111 144.2 111 144.2C138.7 93.7999 194.3 59.3999 258.4 59.3999C350.2 59.3999 424.6 130 424.6 217C424.6 269.2 397.9 315.4 356.7 344.1V344C290.5 346.7 276.2 291.8 276.2 291.8C249.3 291.1 226.7 330 226.7 330C257 255.4 309.3 274 324.9 281.6C328.3 283.3 332.2 283.7 335.9 282.8C359.8 276.7 369.4 259.5 369.4 259.5L381.3 234.8C382.6 232 383.3 229 383.3 225.9V224.4C383.3 219.4 380.5 214.8 376.1 212.5C360.7 204.6 326.1 186.4 325.8 183.3C325.6 181.2 322.4 174.3 319.4 168.4C316.1 161.9 310.3 156.9 303.3 154.8C270 144.9 236.7 154.6 236.7 154.6L200.1 134.7C183.8 176.3 218.4 206.2 218.4 206.2C186.5 194.2 185.1 173.9 185.1 173.9C107 219.8 102.5 306.6 102.5 306.6C132.5 362.9 191.8 401.2 260 401.2C260.5 401.2 261 401.2 261.5 401.2C261.8 401.2 262 401.2 262.3 401.2C361.1 401.2 441.3 321.1 441.3 222.2C441.3 123.3 361.2 43.3999 262.4 43.3999ZM291.1 181.9L318.8 201.5C318.8 201.4 286.9 206 291.1 181.9Z" fill="#D52E30"/>
<path d="M621.2 156.8H593.3V286.9H621.2V156.8Z" fill="#D52E30"/>
<path d="M783.9 259V156.8H755.9V259V287H783.9H827.8V259H783.9Z" fill="#D52E30"/>
<path d="M707.6 156.8V231.8L669.7 156.6H641.8V286.7H669.7V211.7L707.6 287H735.5V156.8H707.6Z" fill="#D52E30"/>
<path d="M572.7 184.8V156.9H528.8C513.4 156.9 500.9 169.4 500.9 184.8V205.4V233.3V287H528.8V233.4H572.7V205.5H528.8V184.9H572.7V184.8Z" fill="#D52E30"/>
<path d="M1254.3 157.3V232.3L1216.4 157H1188.5V287.1H1216.4V212.1L1254.3 287.4H1282.3V157.3H1254.3Z" fill="#3C3030"/>
<path d="M1002.1 175.7H1011.7C1018 175.7 1023.1 180.7 1023.1 187L1023.3 203.8H1052.6V183.3C1052.6 168.7 1040.8 156.9 1026.2 156.9H993.3C977.6 156.9 964.7 169.2 963.9 184.7C963.1 191.8 959.6 226.6 963.9 261.5V258.1C964.1 274.2 977.2 287.2 993.4 287.2H1026.3C1040.9 287.2 1052.7 275.4 1052.7 260.8V239.4H1021.9V255.5C1021.9 261.3 1017.2 266 1011.4 266H1001.3C995.5 266 990.8 261.3 990.8 255.5V187.2C990.7 180.8 995.8 175.7 1002.1 175.7Z" fill="#3D3131"/>
<path d="M1110 159.2H1131.4L1172.2 269.5C1175.9 280 1174.5 285.2 1168.1 285.2H1152.1L1142.7 256.9H1098L1091.4 274.5C1089 281.6 1084.3 285.2 1077.1 285.2H1063.6L1110 159.2ZM1120.7 183.6L1103.4 239.2H1137.8L1120.7 183.6Z" fill="#3C3030" stroke="#3B2F2F" stroke-width="4" stroke-miterlimit="10"/>
<path d="M910.3 197.9V178.2C910.5 174.6 907.4 172.8 900.8 172.8H892C885.1 172.8 881.8 174.7 882.2 178.4V209.5C882.2 211.8 883 213.4 884.7 214.2C886.4 215 888.6 215.8 891.3 216.6L929.1 223.6C934.6 225.5 938 227.3 939.5 229.2C941 231.1 941.7 233.9 941.7 237.8V263.6C941.7 277.8 929.5 284.9 905.1 284.9H886.5C862.3 284.9 850.3 277.2 850.3 261.7V252H880.5V265.5C880.5 269 883.5 270.8 889.6 270.8H902.5C908.6 270.8 911.5 269 911.3 265.5V239.9C911.3 237.6 910.6 236 909.3 235.2C907.9 234.4 906.1 233.7 903.8 233L865.7 225.3C862.3 224 859.7 222.8 857.8 221.7C855.9 220.6 854.5 219.5 853.7 218.4C852.9 217.3 852.3 216.1 852.1 214.8C851.9 213.5 851.8 212 851.8 210.4V180.4C851.8 166 863.9 158.8 888 158.8H904.1C928.3 158.8 940.3 166 940.3 180.4V198H910.3V197.9Z" fill="#3C3030" stroke="#3C3030" stroke-width="4" stroke-miterlimit="10"/>
</g>
<defs>
<clipPath id="clip0_516_34">
<rect width="1412.2" height="434.1" fill="white"/>
</clipPath>
</defs>
</svg>
