<?xml version="1.0" encoding="utf-8"?>
<!-- Generator: Adobe Illustrator 26.0.3, SVG Export Plug-In . SVG Version: 6.00 Build 0)  -->
<svg version="1.1" baseProfile="tiny" id="레이어_1"
	 xmlns="http://www.w3.org/2000/svg" xmlns:xlink="http://www.w3.org/1999/xlink" x="0px" y="0px" viewBox="0 0 48 48"
	 overflow="visible" xml:space="preserve">
<circle fill="#D42E30" cx="106" cy="12" r="12"/>
<circle fill="#D42E30" cx="8" cy="24" r="8"/>
<circle fill="#D42E30" cx="145.5" cy="9.5" r="9.5"/>
<circle fill="#D42E30" cx="-53" cy="32" r="9"/>
<g>
	<polyline fill="none" stroke="#FFB600" stroke-width="1.4783" stroke-miterlimit="10" points="36.75,-47.396 11.25,-35 
		36.75,-22.604 	"/>
	<circle fill="#FFFFFF" stroke="#FFB600" stroke-width="1.4783" stroke-miterlimit="10" cx="11.25" cy="-35" r="4.25"/>
	<circle fill="#FFFFFF" stroke="#FFB600" stroke-width="1.4783" stroke-miterlimit="10" cx="36.75" cy="-47.396" r="4.25"/>
	<circle fill="#FFFFFF" stroke="#FFB600" stroke-width="1.4783" stroke-miterlimit="10" cx="36.75" cy="-22.604" r="4.25"/>
</g>
<g>
	<polygon fill="#FFB600" points="-39.031,-16.427 -42.886,-16.427 -55.92,-29.461 -52.065,-33.315 -40.959,-22.208 -33.912,-29.255 
		-45.018,-40.362 -41.164,-44.216 -28.13,-31.182 -28.13,-27.328 	"/>
	<polygon fill="#FFB600" points="-39.146,-53.573 -43,-53.573 -60,-36.573 -60,-33.13 -57.867,-30.997 -52.265,-36.599 
		-41.031,-25.365 -37.177,-29.219 -48.411,-40.453 -41.073,-47.792 -24.164,-30.883 -22,-33.047 -22,-36.427 	"/>
</g>
<g>
	<polygon fill="none" stroke="#000000" stroke-width="1.2029" stroke-miterlimit="10" points="-38.926,43.568 -42.987,43.568 
		-56.719,29.836 -52.658,25.775 -40.956,37.477 -33.532,30.052 -45.234,18.35 -41.173,14.29 -27.441,28.022 -27.441,32.083 	"/>
	<polygon fill="none" stroke="#000000" stroke-width="1.2029" stroke-miterlimit="10" points="-39.046,4.432 -43.107,4.432 
		-61.018,22.343 -61.018,25.97 -58.771,28.217 -52.869,22.315 -41.033,34.151 -36.972,30.091 -48.808,18.255 -41.077,10.523 
		-23.262,28.338 -20.982,26.058 -20.982,22.496 	"/>
</g>
<g>
	<polyline fill="none" stroke="#FFB600" stroke-width="2" stroke-linejoin="bevel" stroke-miterlimit="10" points="138.824,-39.412 
		181.123,-39.412 168.824,-50 	"/>
	<polyline fill="none" stroke="#FFB600" stroke-width="2" stroke-linejoin="bevel" stroke-miterlimit="10" points="181.176,-30.588 
		138.877,-30.588 151.176,-20 	"/>
</g>
<g>
	<polyline fill="none" stroke="#FFB600" stroke-width="2" stroke-linejoin="bevel" stroke-miterlimit="10" points="72.667,-56 
		79.003,-56 79.003,-25.595 115.333,-25.595 	"/>
	<polyline fill="none" stroke="#FFB600" stroke-width="2" stroke-linejoin="bevel" stroke-miterlimit="10" points="79.003,-50.717 
		114,-44.688 114,-30.667 79.003,-30.667 	"/>
	
		<circle fill="none" stroke="#FFB600" stroke-width="2" stroke-linejoin="bevel" stroke-miterlimit="10" cx="83.333" cy="-18" r="4"/>
	<circle fill="none" stroke="#FFB600" stroke-width="2" stroke-linejoin="bevel" stroke-miterlimit="10" cx="110" cy="-18" r="4"/>
</g>
<g>
	<g>
		<path fill="none" stroke="#181818" stroke-width="1.1417" d="M84.252,23.893h-8.766c0,4.204,1.405,8.08,3.766,11.186
			c2.005-0.593,4.175-1.07,6.472-1.409C84.793,30.832,84.252,27.484,84.252,23.893z"/>
		<path fill="none" stroke="#181818" stroke-width="1.1417" d="M85.725,14.115c-2.298-0.338-4.468-0.815-6.472-1.409
			c-2.361,3.108-3.766,6.982-3.766,11.188h8.766C84.252,20.303,84.793,16.952,85.725,14.115z"/>
		<path fill="none" stroke="#181818" stroke-width="1.1417" d="M103.733,23.893h8.766c0-4.206-1.404-8.08-3.768-11.188
			c-2.003,0.594-4.174,1.072-6.471,1.409C103.193,16.952,103.733,20.303,103.733,23.893z"/>
		<path fill="none" stroke="#181818" stroke-width="1.1417" d="M102.261,33.67c2.297,0.338,4.468,0.816,6.471,1.409
			c2.363-3.106,3.768-6.982,3.768-11.186h-8.766C103.733,27.484,103.193,30.832,102.261,33.67z"/>
		<path fill="none" stroke="#181818" stroke-width="1.1417" d="M93.992,23.893h-9.74c0,3.59,0.54,6.939,1.472,9.777
			c2.614-0.386,5.39-0.593,8.268-0.593V23.893z"/>
		<path fill="none" stroke="#181818" stroke-width="1.1417" d="M93.992,14.709c-2.878,0-5.654-0.209-8.268-0.594
			c-0.932,2.838-1.472,6.188-1.472,9.779h9.74V14.709z"/>
		<path fill="none" stroke="#181818" stroke-width="1.1417" d="M93.992,33.077c2.877,0,5.654,0.207,8.268,0.593
			c0.932-2.838,1.472-6.186,1.472-9.777h-9.74V33.077z"/>
		<path fill="none" stroke="#181818" stroke-width="1.1417" d="M93.992,23.893h9.74c0-3.59-0.54-6.941-1.472-9.779
			c-2.615,0.385-5.391,0.594-8.268,0.594V23.893z"/>
		<path fill="none" stroke="#181818" stroke-width="1.1417" d="M93.992,5.386c-6.017,0-11.36,2.873-14.74,7.32
			c2.005,0.594,4.175,1.072,6.472,1.409C87.443,8.876,90.504,5.386,93.992,5.386z"/>
		<path fill="none" stroke="#181818" stroke-width="1.1417" d="M93.992,5.386c3.489,0,6.549,3.491,8.268,8.729
			c2.297-0.338,4.468-0.815,6.471-1.409C105.351,8.259,100.008,5.386,93.992,5.386z"/>
		<path fill="none" stroke="#181818" stroke-width="1.1417" d="M93.992,5.386c-3.489,0-6.549,3.491-8.268,8.729
			c2.614,0.385,5.39,0.594,8.268,0.594V5.386z"/>
		<path fill="none" stroke="#181818" stroke-width="1.1417" d="M102.261,14.115c-1.719-5.238-4.779-8.729-8.268-8.729v9.323
			C96.87,14.709,99.646,14.5,102.261,14.115z"/>
		<path fill="none" stroke="#181818" stroke-width="1.1417" d="M93.992,42.398c-3.489,0-6.549-3.488-8.268-8.728
			c-2.298,0.338-4.468,0.816-6.472,1.409C82.633,39.526,87.976,42.398,93.992,42.398z"/>
		<path fill="none" stroke="#181818" stroke-width="1.1417" d="M93.992,42.398c6.016,0,11.358-2.873,14.739-7.319
			c-2.003-0.593-4.174-1.07-6.471-1.409C100.541,38.91,97.482,42.398,93.992,42.398z"/>
		<path fill="none" stroke="#181818" stroke-width="1.1417" d="M85.725,33.67c1.719,5.24,4.779,8.728,8.268,8.728v-9.321
			C91.114,33.077,88.338,33.285,85.725,33.67z"/>
		<path fill="none" stroke="#181818" stroke-width="1.1417" d="M102.261,33.67c-2.615-0.386-5.391-0.593-8.268-0.593v9.321
			C97.482,42.398,100.541,38.91,102.261,33.67z"/>
	</g>
	<path fill="#FFFFFF" stroke="#181818" stroke-width="1.1417" d="M95.592,14.738c0,0.865-0.7,1.564-1.562,1.564
		c-0.863,0-1.564-0.699-1.564-1.564c0-0.863,0.701-1.562,1.564-1.562C94.892,13.176,95.592,13.875,95.592,14.738z"/>
	<path fill="#FFFFFF" stroke="#181818" stroke-width="1.1417" d="M87.255,14.104c0,0.863-0.701,1.563-1.564,1.563
		c-0.862,0-1.563-0.7-1.563-1.563c0-0.863,0.701-1.564,1.563-1.564C86.555,12.54,87.255,13.24,87.255,14.104z"/>
	<path fill="#FFFFFF" stroke="#181818" stroke-width="1.1417" d="M80.771,12.696c0,0.864-0.7,1.563-1.562,1.563
		c-0.864,0-1.563-0.699-1.563-1.563c0-0.863,0.698-1.562,1.563-1.562C80.071,11.134,80.771,11.833,80.771,12.696z"/>
	<path fill="#FFFFFF" stroke="#181818" stroke-width="1.1417" d="M77.108,23.856c0,0.863-0.699,1.562-1.562,1.562
		c-0.863,0-1.564-0.699-1.564-1.562c0-0.863,0.701-1.564,1.564-1.564C76.409,22.292,77.108,22.992,77.108,23.856z"/>
	<path fill="#FFFFFF" stroke="#181818" stroke-width="1.1417" d="M105.205,23.856c0,0.863-0.699,1.562-1.564,1.562
		c-0.863,0-1.562-0.699-1.562-1.562c0-0.863,0.699-1.564,1.562-1.564C104.506,22.292,105.205,22.992,105.205,23.856z"/>
	<path fill="#FFFFFF" stroke="#181818" stroke-width="1.1417" d="M114.018,23.856c0,0.863-0.702,1.562-1.564,1.562
		c-0.863,0-1.562-0.699-1.562-1.562c0-0.863,0.7-1.564,1.562-1.564C113.316,22.292,114.018,22.992,114.018,23.856z"/>
	<path fill="#FFFFFF" stroke="#181818" stroke-width="1.1417" d="M85.805,23.856c0,0.863-0.698,1.562-1.562,1.562
		c-0.863,0-1.563-0.699-1.563-1.562c0-0.863,0.7-1.564,1.563-1.564C85.107,22.292,85.805,22.992,85.805,23.856z"/>
	<path fill="#FFFFFF" stroke="#181818" stroke-width="1.1417" d="M87.294,33.641c0,0.863-0.7,1.562-1.563,1.562
		c-0.863,0-1.564-0.699-1.564-1.562c0-0.864,0.7-1.563,1.564-1.563C86.594,32.078,87.294,32.777,87.294,33.641z"/>
	<path fill="#FFFFFF" stroke="#181818" stroke-width="1.1417" d="M80.828,35.071c0,0.863-0.701,1.564-1.564,1.564
		c-0.863,0-1.563-0.701-1.563-1.564c0-0.864,0.7-1.563,1.563-1.563C80.128,33.508,80.828,34.207,80.828,35.071z"/>
	<path fill="#FFFFFF" stroke="#181818" stroke-width="1.1417" d="M103.774,33.697c0,0.863-0.699,1.564-1.562,1.564
		c-0.865,0-1.564-0.701-1.564-1.564c0-0.863,0.699-1.563,1.564-1.563C103.075,32.134,103.774,32.834,103.774,33.697z"/>
	<path fill="#FFFFFF" stroke="#181818" stroke-width="1.1417" d="M110.297,35.127c0,0.863-0.698,1.564-1.561,1.564
		c-0.865,0-1.564-0.7-1.564-1.564c0-0.863,0.699-1.563,1.564-1.563C109.598,33.564,110.297,34.264,110.297,35.127z"/>
	<path fill="#FFFFFF" stroke="#181818" stroke-width="1.1417" d="M103.717,14.184c0,0.865-0.701,1.563-1.563,1.563
		c-0.863,0-1.564-0.698-1.564-1.563c0-0.863,0.701-1.562,1.564-1.562C103.017,12.622,103.717,13.321,103.717,14.184z"/>
	<path fill="#FFFFFF" stroke="#181818" stroke-width="1.1417" d="M110.24,12.754c0,0.863-0.699,1.563-1.564,1.563
		c-0.863,0-1.561-0.701-1.561-1.563c0-0.863,0.698-1.562,1.561-1.562C109.541,11.192,110.24,11.891,110.24,12.754z"/>
	<path fill="#FFFFFF" stroke="#181818" stroke-width="1.1417" d="M95.592,24c0,0.864-0.7,1.564-1.562,1.564
		c-0.863,0-1.564-0.699-1.564-1.564c0-0.863,0.701-1.564,1.564-1.564C94.892,22.436,95.592,23.137,95.592,24z"/>
	<path fill="#FFFFFF" stroke="#181818" stroke-width="1.1417" d="M95.592,33.262c0,0.863-0.7,1.564-1.562,1.564
		c-0.863,0-1.564-0.701-1.564-1.564c0-0.863,0.701-1.564,1.564-1.564C94.892,31.698,95.592,32.399,95.592,33.262z"/>
	<path fill="#FFFFFF" stroke="#181818" stroke-width="1.1417" d="M95.592,42.408c0,0.865-0.7,1.564-1.562,1.564
		c-0.863,0-1.564-0.699-1.564-1.564c0-0.863,0.701-1.562,1.564-1.562C94.892,40.846,95.592,41.545,95.592,42.408z"/>
	<path fill="#FFFFFF" stroke="#181818" stroke-width="1.1417" d="M95.592,5.592c0,0.863-0.7,1.563-1.562,1.563
		c-0.863,0-1.564-0.7-1.564-1.563c0-0.863,0.701-1.564,1.564-1.564C94.892,4.028,95.592,4.729,95.592,5.592z"/>
</g>
<g>
	<g>
		<line fill="none" stroke="#000000" stroke-width="1.0829" x1="143.081" y1="42.318" x2="176.787" y2="42.318"/>
		<g>
			<g>
				<polygon fill="none" stroke="#000000" stroke-width="1.0829" stroke-linecap="round" stroke-linejoin="round" points="
					159.934,3.982 145.407,12.37 159.934,20.757 174.461,12.37 				"/>
				<polygon fill="none" stroke="#000000" stroke-width="1.0829" stroke-linecap="round" stroke-linejoin="round" points="
					145.407,12.37 145.407,29.143 159.934,37.531 159.934,20.757 				"/>
				<polygon fill="#FFFFFF" stroke="#000000" stroke-width="1.0829" stroke-linecap="round" stroke-linejoin="round" points="
					159.934,20.757 159.934,37.531 174.461,29.143 174.461,12.37 				"/>
			</g>
			<polyline fill="none" stroke="#000000" stroke-width="1.0829" points="153.455,8.046 167.334,16.26 167.334,23.483 			"/>
		</g>
		<g>
			<circle fill="#FFFFFF" stroke="#000000" stroke-width="1.0829" cx="143.222" cy="41.893" r="2.124"/>
			<circle fill="#FFFFFF" stroke="#000000" stroke-width="1.0829" cx="159.934" cy="41.893" r="2.124"/>
			<path fill="#FFFFFF" stroke="#000000" stroke-width="1.0829" d="M178.769,41.893c0,1.173-0.951,2.124-2.125,2.124
				c-1.173,0-2.124-0.951-2.124-2.124c0-1.173,0.951-2.124,2.124-2.124C177.818,39.769,178.769,40.72,178.769,41.893z"/>
		</g>
	</g>
	<g>
		<g>
			<path fill="#FFFFFF" stroke="#000000" stroke-width="1.0829" d="M178.902,29.747h-7.564c0,0,0,3.074,0,3.094
				c0,0.939,1.693,1.7,3.782,1.7c2.088,0,3.782-0.761,3.782-1.7c0-0.02-0.002-0.041-0.003-0.062L178.902,29.747z"/>
			<path fill="#FFFFFF" stroke="#000000" stroke-width="1.0829" d="M178.902,29.764c0,0.939-1.693,1.7-3.782,1.7
				c-2.089,0-3.782-0.761-3.782-1.7c0-0.938,1.693-1.7,3.782-1.7C177.209,28.064,178.902,28.826,178.902,29.764z"/>
		</g>
		<g>
			<path fill="#FFFFFF" stroke="#000000" stroke-width="1.0829" d="M178.902,24.451h-7.564c0,0,0,3.073,0,3.094
				c0,0.939,1.693,1.7,3.782,1.7c2.088,0,3.782-0.761,3.782-1.7c0-0.021-0.002-0.041-0.003-0.062L178.902,24.451z"/>
			<path fill="#FFFFFF" stroke="#000000" stroke-width="1.0829" d="M178.902,24.468c0,0.939-1.693,1.7-3.782,1.7
				c-2.089,0-3.782-0.761-3.782-1.7c0-0.939,1.693-1.7,3.782-1.7C177.209,22.768,178.902,23.529,178.902,24.468z"/>
		</g>
		<g>
			<path fill="#FFFFFF" stroke="#000000" stroke-width="1.0829" d="M178.902,19.155h-7.564c0,0,0,3.073,0,3.094
				c0,0.939,1.693,1.7,3.782,1.7c2.088,0,3.782-0.761,3.782-1.7c0-0.021-0.002-0.041-0.003-0.062L178.902,19.155z"/>
			<path fill="#FFFFFF" stroke="#000000" stroke-width="1.0829" d="M178.902,19.172c0,0.939-1.693,1.7-3.782,1.7
				c-2.089,0-3.782-0.761-3.782-1.7c0-0.939,1.693-1.7,3.782-1.7C177.209,17.472,178.902,18.233,178.902,19.172z"/>
		</g>
	</g>
</g>
<g>
	<g>
		<g>
			<g>
				<path fill="#FFFFFF" stroke="#000000" stroke-width="1.0721" stroke-linejoin="round" d="M43.516,6.698
					c0-1.5-1.216-2.716-2.717-2.716h-24.99c-1.5,0-2.717,1.216-2.717,2.716v2.988h30.423V6.698z"/>
				<path fill="none" stroke="#000000" stroke-width="1.0721" stroke-linejoin="round" d="M13.093,9.687v23.632
					c0,1.5,1.217,2.716,2.717,2.716h24.99c1.5,0,2.717-1.216,2.717-2.716V9.687H13.093z"/>
			</g>
			<g>
				<line fill="none" stroke="#000000" stroke-width="1.0721" x1="18.493" y1="15.428" x2="38.116" y2="15.428"/>
				<path fill="#FFFFFF" stroke="#000000" stroke-width="1.0721" stroke-linejoin="round" d="M24.792,15.428
					c0,1.07-0.868,1.938-1.939,1.938c-1.07,0-1.938-0.868-1.938-1.938c0-1.07,0.868-1.938,1.938-1.938
					C23.924,13.489,24.792,14.357,24.792,15.428z"/>
				<line fill="none" stroke="#000000" stroke-width="1.0721" x1="18.493" y1="22.453" x2="38.116" y2="22.453"/>
				<path fill="#FFFFFF" stroke="#000000" stroke-width="1.0721" stroke-linejoin="round" d="M33.513,22.453
					c0,1.07-0.867,1.938-1.938,1.938c-1.07,0-1.938-0.868-1.938-1.938s0.868-1.937,1.938-1.937
					C32.646,20.516,33.513,21.383,33.513,22.453z"/>
				<line fill="none" stroke="#000000" stroke-width="1.0721" x1="18.493" y1="29.479" x2="38.116" y2="29.479"/>
				<path fill="#FFFFFF" stroke="#000000" stroke-width="1.0721" stroke-linejoin="round" d="M28.91,29.479
					c0,1.07-0.868,1.938-1.939,1.938s-1.938-0.868-1.938-1.938s0.868-1.938,1.938-1.938S28.91,28.409,28.91,29.479z"/>
			</g>
		</g>
		<g>
			
				<line fill="none" stroke="#000000" stroke-width="1.0721" stroke-linejoin="round" x1="40.596" y1="5.884" x2="40.596" y2="7.513"/>
			
				<line fill="none" stroke="#000000" stroke-width="1.0721" stroke-linejoin="round" x1="38.423" y1="5.884" x2="38.423" y2="7.513"/>
			
				<line fill="none" stroke="#000000" stroke-width="1.0721" stroke-linejoin="round" x1="36.25" y1="5.884" x2="36.25" y2="7.513"/>
			
				<line fill="none" stroke="#000000" stroke-width="1.0721" stroke-linejoin="round" x1="34.076" y1="5.884" x2="34.076" y2="7.513"/>
		</g>
	</g>
	<g>
		<rect x="4.484" y="32.045" fill="#FFFFFF" stroke="#000000" stroke-width="1.0721" width="19.955" height="11.973"/>
		<g>
			<g>
				<line fill="none" stroke="#000000" stroke-width="1.0721" x1="8.179" y1="35.135" x2="8.179" y2="38.978"/>
				<line fill="none" stroke="#000000" stroke-width="1.0721" x1="10.693" y1="35.135" x2="10.693" y2="38.978"/>
				<line fill="none" stroke="#000000" stroke-width="1.0721" x1="13.205" y1="35.135" x2="13.205" y2="38.978"/>
				<line fill="none" stroke="#000000" stroke-width="1.0721" x1="15.718" y1="35.135" x2="15.718" y2="38.978"/>
				<line fill="none" stroke="#000000" stroke-width="1.0721" x1="18.231" y1="35.135" x2="18.231" y2="38.978"/>
				<line fill="none" stroke="#000000" stroke-width="1.0721" x1="20.743" y1="35.135" x2="20.743" y2="38.978"/>
			</g>
			<g>
				<line fill="none" stroke="#000000" stroke-width="1.0721" x1="8.179" y1="40.042" x2="8.179" y2="40.928"/>
				<line fill="none" stroke="#000000" stroke-width="1.0721" x1="10.693" y1="40.042" x2="10.693" y2="40.928"/>
				<line fill="none" stroke="#000000" stroke-width="1.0721" x1="13.205" y1="40.042" x2="13.205" y2="40.928"/>
				<line fill="none" stroke="#000000" stroke-width="1.0721" x1="15.718" y1="40.042" x2="15.718" y2="40.928"/>
				<line fill="none" stroke="#000000" stroke-width="1.0721" x1="18.231" y1="40.042" x2="18.231" y2="40.928"/>
				<line fill="none" stroke="#000000" stroke-width="1.0721" x1="20.743" y1="40.042" x2="20.743" y2="40.928"/>
			</g>
		</g>
	</g>
</g>
</svg>
