<?xml version="1.0" encoding="utf-8"?>
<!-- Generator: Adobe Illustrator 26.0.3, SVG Export Plug-In . SVG Version: 6.00 Build 0)  -->
<svg version="1.1" baseProfile="tiny" id="레이어_1"
	 xmlns="http://www.w3.org/2000/svg" xmlns:xlink="http://www.w3.org/1999/xlink" x="0px" y="0px" viewBox="0 0 48 48"
	 overflow="visible" xml:space="preserve">
<circle fill="#D42E30" cx="36" cy="12" r="12"/>
<circle fill="#D42E30" cx="-62" cy="24" r="8"/>
<circle fill="#D42E30" cx="75.5" cy="9.5" r="9.5"/>
<circle fill="#D42E30" cx="-123" cy="32" r="9"/>
<g>
	<polyline fill="none" stroke="#FFB600" stroke-width="1.4783" stroke-miterlimit="10" points="-33.25,-47.396 -58.75,-35 
		-33.25,-22.604 	"/>
	<circle fill="#FFFFFF" stroke="#FFB600" stroke-width="1.4783" stroke-miterlimit="10" cx="-58.75" cy="-35" r="4.25"/>
	<circle fill="#FFFFFF" stroke="#FFB600" stroke-width="1.4783" stroke-miterlimit="10" cx="-33.25" cy="-47.396" r="4.25"/>
	<circle fill="#FFFFFF" stroke="#FFB600" stroke-width="1.4783" stroke-miterlimit="10" cx="-33.25" cy="-22.604" r="4.25"/>
</g>
<g>
	<polygon fill="#FFB600" points="-109.031,-16.427 -112.886,-16.427 -125.92,-29.461 -122.065,-33.315 -110.959,-22.208 
		-103.912,-29.255 -115.018,-40.362 -111.164,-44.216 -98.13,-31.182 -98.13,-27.328 	"/>
	<polygon fill="#FFB600" points="-109.146,-53.573 -113,-53.573 -130,-36.573 -130,-33.13 -127.867,-30.997 -122.265,-36.599 
		-111.031,-25.365 -107.177,-29.219 -118.411,-40.453 -111.073,-47.792 -94.164,-30.883 -92,-33.047 -92,-36.427 	"/>
</g>
<g>
	<polygon fill="none" stroke="#000000" stroke-width="1.2029" stroke-miterlimit="10" points="-108.926,43.568 -112.987,43.568 
		-126.719,29.836 -122.658,25.775 -110.956,37.477 -103.532,30.052 -115.234,18.35 -111.173,14.29 -97.441,28.022 -97.441,32.083 	
		"/>
	<polygon fill="none" stroke="#000000" stroke-width="1.2029" stroke-miterlimit="10" points="-109.046,4.432 -113.107,4.432 
		-131.018,22.343 -131.018,25.97 -128.771,28.217 -122.869,22.315 -111.033,34.151 -106.972,30.091 -118.808,18.255 
		-111.077,10.523 -93.262,28.338 -90.982,26.058 -90.982,22.496 	"/>
</g>
<g>
	<polyline fill="none" stroke="#FFB600" stroke-width="2" stroke-linejoin="bevel" stroke-miterlimit="10" points="68.824,-39.412 
		111.123,-39.412 98.824,-50 	"/>
	<polyline fill="none" stroke="#FFB600" stroke-width="2" stroke-linejoin="bevel" stroke-miterlimit="10" points="111.176,-30.588 
		68.877,-30.588 81.176,-20 	"/>
</g>
<g>
	<polyline fill="none" stroke="#FFB600" stroke-width="2" stroke-linejoin="bevel" stroke-miterlimit="10" points="2.667,-56 
		9.003,-56 9.003,-25.595 45.333,-25.595 	"/>
	<polyline fill="none" stroke="#FFB600" stroke-width="2" stroke-linejoin="bevel" stroke-miterlimit="10" points="9.003,-50.717 
		44,-44.688 44,-30.667 9.003,-30.667 	"/>
	
		<circle fill="none" stroke="#FFB600" stroke-width="2" stroke-linejoin="bevel" stroke-miterlimit="10" cx="13.333" cy="-18" r="4"/>
	<circle fill="none" stroke="#FFB600" stroke-width="2" stroke-linejoin="bevel" stroke-miterlimit="10" cx="40" cy="-18" r="4"/>
</g>
<g>
	<g>
		<path fill="none" stroke="#181818" stroke-width="1.1417" d="M14.252,23.893H5.486c0,4.204,1.405,8.08,3.766,11.186
			c2.005-0.593,4.175-1.07,6.472-1.409C14.793,30.832,14.252,27.484,14.252,23.893z"/>
		<path fill="none" stroke="#181818" stroke-width="1.1417" d="M15.725,14.115c-2.298-0.338-4.468-0.815-6.472-1.409
			c-2.361,3.108-3.766,6.982-3.766,11.188h8.766C14.252,20.303,14.793,16.952,15.725,14.115z"/>
		<path fill="none" stroke="#181818" stroke-width="1.1417" d="M33.733,23.893h8.766c0-4.206-1.404-8.08-3.768-11.188
			c-2.003,0.594-4.174,1.072-6.471,1.409C33.193,16.952,33.733,20.303,33.733,23.893z"/>
		<path fill="none" stroke="#181818" stroke-width="1.1417" d="M32.261,33.67c2.297,0.338,4.468,0.816,6.471,1.409
			c2.363-3.106,3.768-6.982,3.768-11.186h-8.766C33.733,27.484,33.193,30.832,32.261,33.67z"/>
		<path fill="none" stroke="#181818" stroke-width="1.1417" d="M23.992,23.893h-9.74c0,3.59,0.54,6.939,1.472,9.777
			c2.614-0.386,5.39-0.593,8.268-0.593V23.893z"/>
		<path fill="none" stroke="#181818" stroke-width="1.1417" d="M23.992,14.709c-2.878,0-5.654-0.209-8.268-0.594
			c-0.932,2.838-1.472,6.188-1.472,9.779h9.74V14.709z"/>
		<path fill="none" stroke="#181818" stroke-width="1.1417" d="M23.992,33.077c2.877,0,5.654,0.207,8.268,0.593
			c0.932-2.838,1.472-6.186,1.472-9.777h-9.74V33.077z"/>
		<path fill="none" stroke="#181818" stroke-width="1.1417" d="M23.992,23.893h9.74c0-3.59-0.54-6.941-1.472-9.779
			c-2.615,0.385-5.391,0.594-8.268,0.594V23.893z"/>
		<path fill="none" stroke="#181818" stroke-width="1.1417" d="M23.992,5.386c-6.017,0-11.36,2.873-14.74,7.32
			c2.005,0.594,4.175,1.072,6.472,1.409C17.443,8.876,20.504,5.386,23.992,5.386z"/>
		<path fill="none" stroke="#181818" stroke-width="1.1417" d="M23.992,5.386c3.489,0,6.549,3.491,8.268,8.729
			c2.297-0.338,4.468-0.815,6.471-1.409C35.351,8.259,30.008,5.386,23.992,5.386z"/>
		<path fill="none" stroke="#181818" stroke-width="1.1417" d="M23.992,5.386c-3.489,0-6.549,3.491-8.268,8.729
			c2.614,0.385,5.39,0.594,8.268,0.594V5.386z"/>
		<path fill="none" stroke="#181818" stroke-width="1.1417" d="M32.261,14.115c-1.719-5.238-4.779-8.729-8.268-8.729v9.323
			C26.87,14.709,29.646,14.5,32.261,14.115z"/>
		<path fill="none" stroke="#181818" stroke-width="1.1417" d="M23.992,42.398c-3.489,0-6.549-3.488-8.268-8.728
			c-2.298,0.338-4.468,0.816-6.472,1.409C12.633,39.526,17.976,42.398,23.992,42.398z"/>
		<path fill="none" stroke="#181818" stroke-width="1.1417" d="M23.992,42.398c6.016,0,11.358-2.873,14.739-7.319
			c-2.003-0.593-4.174-1.07-6.471-1.409C30.541,38.91,27.482,42.398,23.992,42.398z"/>
		<path fill="none" stroke="#181818" stroke-width="1.1417" d="M15.725,33.67c1.719,5.24,4.779,8.728,8.268,8.728v-9.321
			C21.114,33.077,18.338,33.285,15.725,33.67z"/>
		<path fill="none" stroke="#181818" stroke-width="1.1417" d="M32.261,33.67c-2.615-0.386-5.391-0.593-8.268-0.593v9.321
			C27.482,42.398,30.541,38.91,32.261,33.67z"/>
	</g>
	<path fill="#FFFFFF" stroke="#181818" stroke-width="1.1417" d="M25.592,14.738c0,0.865-0.7,1.564-1.562,1.564
		c-0.863,0-1.564-0.699-1.564-1.564c0-0.863,0.701-1.562,1.564-1.562C24.892,13.176,25.592,13.875,25.592,14.738z"/>
	<path fill="#FFFFFF" stroke="#181818" stroke-width="1.1417" d="M17.255,14.104c0,0.863-0.701,1.563-1.564,1.563
		c-0.862,0-1.563-0.7-1.563-1.563c0-0.863,0.701-1.564,1.563-1.564C16.555,12.54,17.255,13.24,17.255,14.104z"/>
	<path fill="#FFFFFF" stroke="#181818" stroke-width="1.1417" d="M10.771,12.696c0,0.864-0.7,1.563-1.562,1.563
		c-0.864,0-1.563-0.699-1.563-1.563c0-0.863,0.698-1.562,1.563-1.562C10.071,11.134,10.771,11.833,10.771,12.696z"/>
	<path fill="#FFFFFF" stroke="#181818" stroke-width="1.1417" d="M7.108,23.856c0,0.863-0.699,1.562-1.562,1.562
		c-0.863,0-1.564-0.699-1.564-1.562c0-0.863,0.701-1.564,1.564-1.564C6.409,22.292,7.108,22.992,7.108,23.856z"/>
	<path fill="#FFFFFF" stroke="#181818" stroke-width="1.1417" d="M35.205,23.856c0,0.863-0.699,1.562-1.564,1.562
		c-0.863,0-1.562-0.699-1.562-1.562c0-0.863,0.699-1.564,1.562-1.564C34.506,22.292,35.205,22.992,35.205,23.856z"/>
	<path fill="#FFFFFF" stroke="#181818" stroke-width="1.1417" d="M44.018,23.856c0,0.863-0.702,1.562-1.564,1.562
		c-0.863,0-1.562-0.699-1.562-1.562c0-0.863,0.7-1.564,1.562-1.564C43.316,22.292,44.018,22.992,44.018,23.856z"/>
	<path fill="#FFFFFF" stroke="#181818" stroke-width="1.1417" d="M15.805,23.856c0,0.863-0.698,1.562-1.562,1.562
		c-0.863,0-1.563-0.699-1.563-1.562c0-0.863,0.7-1.564,1.563-1.564C15.107,22.292,15.805,22.992,15.805,23.856z"/>
	<path fill="#FFFFFF" stroke="#181818" stroke-width="1.1417" d="M17.294,33.641c0,0.863-0.7,1.562-1.563,1.562
		c-0.863,0-1.564-0.699-1.564-1.562c0-0.864,0.7-1.563,1.564-1.563C16.594,32.078,17.294,32.777,17.294,33.641z"/>
	<path fill="#FFFFFF" stroke="#181818" stroke-width="1.1417" d="M10.828,35.071c0,0.863-0.701,1.564-1.564,1.564
		c-0.863,0-1.563-0.701-1.563-1.564c0-0.864,0.7-1.563,1.563-1.563C10.128,33.508,10.828,34.207,10.828,35.071z"/>
	<path fill="#FFFFFF" stroke="#181818" stroke-width="1.1417" d="M33.774,33.697c0,0.863-0.699,1.564-1.562,1.564
		c-0.865,0-1.564-0.701-1.564-1.564c0-0.863,0.699-1.563,1.564-1.563C33.075,32.134,33.774,32.834,33.774,33.697z"/>
	<path fill="#FFFFFF" stroke="#181818" stroke-width="1.1417" d="M40.297,35.127c0,0.863-0.698,1.564-1.561,1.564
		c-0.865,0-1.564-0.7-1.564-1.564c0-0.863,0.699-1.563,1.564-1.563C39.598,33.564,40.297,34.264,40.297,35.127z"/>
	<path fill="#FFFFFF" stroke="#181818" stroke-width="1.1417" d="M33.717,14.184c0,0.865-0.701,1.563-1.563,1.563
		c-0.863,0-1.564-0.698-1.564-1.563c0-0.863,0.701-1.562,1.564-1.562C33.017,12.622,33.717,13.321,33.717,14.184z"/>
	<path fill="#FFFFFF" stroke="#181818" stroke-width="1.1417" d="M40.24,12.754c0,0.863-0.699,1.563-1.564,1.563
		c-0.863,0-1.561-0.701-1.561-1.563c0-0.863,0.698-1.562,1.561-1.562C39.541,11.192,40.24,11.891,40.24,12.754z"/>
	<path fill="#FFFFFF" stroke="#181818" stroke-width="1.1417" d="M25.592,24c0,0.864-0.7,1.564-1.562,1.564
		c-0.863,0-1.564-0.699-1.564-1.564c0-0.863,0.701-1.564,1.564-1.564C24.892,22.436,25.592,23.137,25.592,24z"/>
	<path fill="#FFFFFF" stroke="#181818" stroke-width="1.1417" d="M25.592,33.262c0,0.863-0.7,1.564-1.562,1.564
		c-0.863,0-1.564-0.701-1.564-1.564c0-0.863,0.701-1.564,1.564-1.564C24.892,31.698,25.592,32.399,25.592,33.262z"/>
	<path fill="#FFFFFF" stroke="#181818" stroke-width="1.1417" d="M25.592,42.408c0,0.865-0.7,1.564-1.562,1.564
		c-0.863,0-1.564-0.699-1.564-1.564c0-0.863,0.701-1.562,1.564-1.562C24.892,40.846,25.592,41.545,25.592,42.408z"/>
	<path fill="#FFFFFF" stroke="#181818" stroke-width="1.1417" d="M25.592,5.592c0,0.863-0.7,1.563-1.562,1.563
		c-0.863,0-1.564-0.7-1.564-1.563c0-0.863,0.701-1.564,1.564-1.564C24.892,4.028,25.592,4.729,25.592,5.592z"/>
</g>
<g>
	<g>
		<line fill="none" stroke="#000000" stroke-width="1.0829" x1="73.081" y1="42.318" x2="106.787" y2="42.318"/>
		<g>
			<g>
				<polygon fill="none" stroke="#000000" stroke-width="1.0829" stroke-linecap="round" stroke-linejoin="round" points="
					89.934,3.982 75.407,12.37 89.934,20.757 104.461,12.37 				"/>
				<polygon fill="none" stroke="#000000" stroke-width="1.0829" stroke-linecap="round" stroke-linejoin="round" points="
					75.407,12.37 75.407,29.143 89.934,37.531 89.934,20.757 				"/>
				<polygon fill="#FFFFFF" stroke="#000000" stroke-width="1.0829" stroke-linecap="round" stroke-linejoin="round" points="
					89.934,20.757 89.934,37.531 104.461,29.143 104.461,12.37 				"/>
			</g>
			<polyline fill="none" stroke="#000000" stroke-width="1.0829" points="83.455,8.046 97.334,16.26 97.334,23.483 			"/>
		</g>
		<g>
			<circle fill="#FFFFFF" stroke="#000000" stroke-width="1.0829" cx="73.222" cy="41.893" r="2.124"/>
			<circle fill="#FFFFFF" stroke="#000000" stroke-width="1.0829" cx="89.934" cy="41.893" r="2.124"/>
			<path fill="#FFFFFF" stroke="#000000" stroke-width="1.0829" d="M108.769,41.893c0,1.173-0.951,2.124-2.125,2.124
				c-1.173,0-2.124-0.951-2.124-2.124c0-1.173,0.951-2.124,2.124-2.124C107.818,39.769,108.769,40.72,108.769,41.893z"/>
		</g>
	</g>
	<g>
		<g>
			<path fill="#FFFFFF" stroke="#000000" stroke-width="1.0829" d="M108.902,29.747h-7.564c0,0,0,3.074,0,3.094
				c0,0.939,1.693,1.7,3.782,1.7c2.088,0,3.782-0.761,3.782-1.7c0-0.02-0.002-0.041-0.003-0.062L108.902,29.747z"/>
			<path fill="#FFFFFF" stroke="#000000" stroke-width="1.0829" d="M108.902,29.764c0,0.939-1.693,1.7-3.782,1.7
				c-2.089,0-3.782-0.761-3.782-1.7c0-0.938,1.693-1.7,3.782-1.7C107.209,28.064,108.902,28.826,108.902,29.764z"/>
		</g>
		<g>
			<path fill="#FFFFFF" stroke="#000000" stroke-width="1.0829" d="M108.902,24.451h-7.564c0,0,0,3.073,0,3.094
				c0,0.939,1.693,1.7,3.782,1.7c2.088,0,3.782-0.761,3.782-1.7c0-0.021-0.002-0.041-0.003-0.062L108.902,24.451z"/>
			<path fill="#FFFFFF" stroke="#000000" stroke-width="1.0829" d="M108.902,24.468c0,0.939-1.693,1.7-3.782,1.7
				c-2.089,0-3.782-0.761-3.782-1.7c0-0.939,1.693-1.7,3.782-1.7C107.209,22.768,108.902,23.529,108.902,24.468z"/>
		</g>
		<g>
			<path fill="#FFFFFF" stroke="#000000" stroke-width="1.0829" d="M108.902,19.155h-7.564c0,0,0,3.073,0,3.094
				c0,0.939,1.693,1.7,3.782,1.7c2.088,0,3.782-0.761,3.782-1.7c0-0.021-0.002-0.041-0.003-0.062L108.902,19.155z"/>
			<path fill="#FFFFFF" stroke="#000000" stroke-width="1.0829" d="M108.902,19.172c0,0.939-1.693,1.7-3.782,1.7
				c-2.089,0-3.782-0.761-3.782-1.7c0-0.939,1.693-1.7,3.782-1.7C107.209,17.472,108.902,18.233,108.902,19.172z"/>
		</g>
	</g>
</g>
<g>
	<g>
		<g>
			<g>
				<path fill="#FFFFFF" stroke="#000000" stroke-width="1.0721" stroke-linejoin="round" d="M-26.484,6.698
					c0-1.5-1.216-2.716-2.717-2.716h-24.99c-1.5,0-2.717,1.216-2.717,2.716v2.988h30.423V6.698z"/>
				<path fill="none" stroke="#000000" stroke-width="1.0721" stroke-linejoin="round" d="M-56.907,9.687v23.632
					c0,1.5,1.217,2.716,2.717,2.716h24.99c1.5,0,2.717-1.216,2.717-2.716V9.687H-56.907z"/>
			</g>
			<g>
				<line fill="none" stroke="#000000" stroke-width="1.0721" x1="-51.507" y1="15.428" x2="-31.884" y2="15.428"/>
				<path fill="#FFFFFF" stroke="#000000" stroke-width="1.0721" stroke-linejoin="round" d="M-45.208,15.428
					c0,1.07-0.868,1.938-1.939,1.938c-1.07,0-1.938-0.868-1.938-1.938c0-1.07,0.868-1.938,1.938-1.938
					C-46.076,13.489-45.208,14.357-45.208,15.428z"/>
				<line fill="none" stroke="#000000" stroke-width="1.0721" x1="-51.507" y1="22.453" x2="-31.884" y2="22.453"/>
				<path fill="#FFFFFF" stroke="#000000" stroke-width="1.0721" stroke-linejoin="round" d="M-36.487,22.453
					c0,1.07-0.867,1.938-1.938,1.938c-1.07,0-1.938-0.868-1.938-1.938s0.868-1.937,1.938-1.937
					C-37.354,20.516-36.487,21.383-36.487,22.453z"/>
				<line fill="none" stroke="#000000" stroke-width="1.0721" x1="-51.507" y1="29.479" x2="-31.884" y2="29.479"/>
				<path fill="#FFFFFF" stroke="#000000" stroke-width="1.0721" stroke-linejoin="round" d="M-41.09,29.479
					c0,1.07-0.868,1.938-1.939,1.938s-1.938-0.868-1.938-1.938s0.868-1.938,1.938-1.938S-41.09,28.409-41.09,29.479z"/>
			</g>
		</g>
		<g>
			
				<line fill="none" stroke="#000000" stroke-width="1.0721" stroke-linejoin="round" x1="-29.404" y1="5.884" x2="-29.404" y2="7.513"/>
			
				<line fill="none" stroke="#000000" stroke-width="1.0721" stroke-linejoin="round" x1="-31.577" y1="5.884" x2="-31.577" y2="7.513"/>
			
				<line fill="none" stroke="#000000" stroke-width="1.0721" stroke-linejoin="round" x1="-33.75" y1="5.884" x2="-33.75" y2="7.513"/>
			
				<line fill="none" stroke="#000000" stroke-width="1.0721" stroke-linejoin="round" x1="-35.924" y1="5.884" x2="-35.924" y2="7.513"/>
		</g>
	</g>
	<g>
		<rect x="-65.516" y="32.045" fill="#FFFFFF" stroke="#000000" stroke-width="1.0721" width="19.955" height="11.973"/>
		<g>
			<g>
				<line fill="none" stroke="#000000" stroke-width="1.0721" x1="-61.821" y1="35.135" x2="-61.821" y2="38.978"/>
				<line fill="none" stroke="#000000" stroke-width="1.0721" x1="-59.307" y1="35.135" x2="-59.307" y2="38.978"/>
				<line fill="none" stroke="#000000" stroke-width="1.0721" x1="-56.795" y1="35.135" x2="-56.795" y2="38.978"/>
				<line fill="none" stroke="#000000" stroke-width="1.0721" x1="-54.282" y1="35.135" x2="-54.282" y2="38.978"/>
				<line fill="none" stroke="#000000" stroke-width="1.0721" x1="-51.769" y1="35.135" x2="-51.769" y2="38.978"/>
				<line fill="none" stroke="#000000" stroke-width="1.0721" x1="-49.257" y1="35.135" x2="-49.257" y2="38.978"/>
			</g>
			<g>
				<line fill="none" stroke="#000000" stroke-width="1.0721" x1="-61.821" y1="40.042" x2="-61.821" y2="40.928"/>
				<line fill="none" stroke="#000000" stroke-width="1.0721" x1="-59.307" y1="40.042" x2="-59.307" y2="40.928"/>
				<line fill="none" stroke="#000000" stroke-width="1.0721" x1="-56.795" y1="40.042" x2="-56.795" y2="40.928"/>
				<line fill="none" stroke="#000000" stroke-width="1.0721" x1="-54.282" y1="40.042" x2="-54.282" y2="40.928"/>
				<line fill="none" stroke="#000000" stroke-width="1.0721" x1="-51.769" y1="40.042" x2="-51.769" y2="40.928"/>
				<line fill="none" stroke="#000000" stroke-width="1.0721" x1="-49.257" y1="40.042" x2="-49.257" y2="40.928"/>
			</g>
		</g>
	</g>
</g>
</svg>
