<?xml version="1.0" encoding="utf-8"?>
<!-- Generator: Adobe Illustrator 26.0.3, SVG Export Plug-In . SVG Version: 6.00 Build 0)  -->
<svg version="1.1" baseProfile="tiny" id="레이어_1"
	 xmlns="http://www.w3.org/2000/svg" xmlns:xlink="http://www.w3.org/1999/xlink" x="0px" y="0px" viewBox="0 0 48 48"
	 overflow="visible" xml:space="preserve">
<circle fill="#D42E30" cx="171" cy="12" r="12"/>
<circle fill="#D42E30" cx="73" cy="24" r="8"/>
<circle fill="#D42E30" cx="210.5" cy="9.5" r="9.5"/>
<circle fill="#D42E30" cx="12" cy="32" r="9"/>
<g>
	<polyline fill="none" stroke="#FFB600" stroke-width="1.4783" stroke-miterlimit="10" points="101.75,-47.396 76.25,-35 
		101.75,-22.604 	"/>
	<circle fill="#FFFFFF" stroke="#FFB600" stroke-width="1.4783" stroke-miterlimit="10" cx="76.25" cy="-35" r="4.25"/>
	<circle fill="#FFFFFF" stroke="#FFB600" stroke-width="1.4783" stroke-miterlimit="10" cx="101.75" cy="-47.396" r="4.25"/>
	<circle fill="#FFFFFF" stroke="#FFB600" stroke-width="1.4783" stroke-miterlimit="10" cx="101.75" cy="-22.604" r="4.25"/>
</g>
<g>
	<polygon fill="#FFB600" points="25.969,-16.427 22.114,-16.427 9.08,-29.461 12.935,-33.315 24.041,-22.208 31.088,-29.255 
		19.982,-40.362 23.836,-44.216 36.87,-31.182 36.87,-27.328 	"/>
	<polygon fill="#FFB600" points="25.854,-53.573 22,-53.573 5,-36.573 5,-33.13 7.133,-30.997 12.735,-36.599 23.969,-25.365 
		27.823,-29.219 16.589,-40.453 23.927,-47.792 40.836,-30.883 43,-33.047 43,-36.427 	"/>
</g>
<g>
	<polygon fill="none" stroke="#000000" stroke-width="1.2029" stroke-miterlimit="10" points="26.074,43.568 22.013,43.568 
		8.281,29.836 12.342,25.775 24.044,37.477 31.468,30.052 19.766,18.35 23.827,14.29 37.559,28.022 37.559,32.083 	"/>
	<polygon fill="none" stroke="#000000" stroke-width="1.2029" stroke-miterlimit="10" points="25.954,4.432 21.893,4.432 
		3.982,22.343 3.982,25.97 6.229,28.217 12.131,22.315 23.967,34.151 28.028,30.091 16.192,18.255 23.923,10.523 41.738,28.338 
		44.018,26.058 44.018,22.496 	"/>
</g>
<g>
	<polyline fill="none" stroke="#FFB600" stroke-width="2" stroke-linejoin="bevel" stroke-miterlimit="10" points="203.824,-39.412 
		246.123,-39.412 233.824,-50 	"/>
	<polyline fill="none" stroke="#FFB600" stroke-width="2" stroke-linejoin="bevel" stroke-miterlimit="10" points="246.176,-30.588 
		203.877,-30.588 216.176,-20 	"/>
</g>
<g>
	<polyline fill="none" stroke="#FFB600" stroke-width="2" stroke-linejoin="bevel" stroke-miterlimit="10" points="137.667,-56 
		144.003,-56 144.003,-25.595 180.333,-25.595 	"/>
	<polyline fill="none" stroke="#FFB600" stroke-width="2" stroke-linejoin="bevel" stroke-miterlimit="10" points="144.003,-50.717 
		179,-44.688 179,-30.667 144.003,-30.667 	"/>
	
		<circle fill="none" stroke="#FFB600" stroke-width="2" stroke-linejoin="bevel" stroke-miterlimit="10" cx="148.333" cy="-18" r="4"/>
	<circle fill="none" stroke="#FFB600" stroke-width="2" stroke-linejoin="bevel" stroke-miterlimit="10" cx="175" cy="-18" r="4"/>
</g>
<g>
	<g>
		<path fill="none" stroke="#181818" stroke-width="1.1417" d="M149.252,23.893h-8.766c0,4.204,1.405,8.08,3.766,11.186
			c2.005-0.593,4.175-1.07,6.472-1.409C149.793,30.832,149.252,27.484,149.252,23.893z"/>
		<path fill="none" stroke="#181818" stroke-width="1.1417" d="M150.725,14.115c-2.298-0.338-4.468-0.815-6.472-1.409
			c-2.361,3.108-3.766,6.982-3.766,11.188h8.766C149.252,20.303,149.793,16.952,150.725,14.115z"/>
		<path fill="none" stroke="#181818" stroke-width="1.1417" d="M168.733,23.893h8.766c0-4.206-1.404-8.08-3.768-11.188
			c-2.003,0.594-4.174,1.072-6.471,1.409C168.193,16.952,168.733,20.303,168.733,23.893z"/>
		<path fill="none" stroke="#181818" stroke-width="1.1417" d="M167.261,33.67c2.297,0.338,4.468,0.816,6.471,1.409
			c2.363-3.106,3.768-6.982,3.768-11.186h-8.766C168.733,27.484,168.193,30.832,167.261,33.67z"/>
		<path fill="none" stroke="#181818" stroke-width="1.1417" d="M158.992,23.893h-9.74c0,3.59,0.54,6.939,1.472,9.777
			c2.614-0.386,5.39-0.593,8.268-0.593V23.893z"/>
		<path fill="none" stroke="#181818" stroke-width="1.1417" d="M158.992,14.709c-2.878,0-5.654-0.209-8.268-0.594
			c-0.932,2.838-1.472,6.188-1.472,9.779h9.74V14.709z"/>
		<path fill="none" stroke="#181818" stroke-width="1.1417" d="M158.992,33.077c2.877,0,5.654,0.207,8.268,0.593
			c0.932-2.838,1.472-6.186,1.472-9.777h-9.74V33.077z"/>
		<path fill="none" stroke="#181818" stroke-width="1.1417" d="M158.992,23.893h9.74c0-3.59-0.54-6.941-1.472-9.779
			c-2.615,0.385-5.391,0.594-8.268,0.594V23.893z"/>
		<path fill="none" stroke="#181818" stroke-width="1.1417" d="M158.992,5.386c-6.017,0-11.36,2.873-14.74,7.32
			c2.005,0.594,4.175,1.072,6.472,1.409C152.443,8.876,155.504,5.386,158.992,5.386z"/>
		<path fill="none" stroke="#181818" stroke-width="1.1417" d="M158.992,5.386c3.489,0,6.549,3.491,8.268,8.729
			c2.297-0.338,4.468-0.815,6.471-1.409C170.351,8.259,165.008,5.386,158.992,5.386z"/>
		<path fill="none" stroke="#181818" stroke-width="1.1417" d="M158.992,5.386c-3.489,0-6.549,3.491-8.268,8.729
			c2.614,0.385,5.39,0.594,8.268,0.594V5.386z"/>
		<path fill="none" stroke="#181818" stroke-width="1.1417" d="M167.261,14.115c-1.719-5.238-4.779-8.729-8.268-8.729v9.323
			C161.87,14.709,164.646,14.5,167.261,14.115z"/>
		<path fill="none" stroke="#181818" stroke-width="1.1417" d="M158.992,42.398c-3.489,0-6.549-3.488-8.268-8.728
			c-2.298,0.338-4.468,0.816-6.472,1.409C147.633,39.526,152.976,42.398,158.992,42.398z"/>
		<path fill="none" stroke="#181818" stroke-width="1.1417" d="M158.992,42.398c6.016,0,11.358-2.873,14.739-7.319
			c-2.003-0.593-4.174-1.07-6.471-1.409C165.541,38.91,162.482,42.398,158.992,42.398z"/>
		<path fill="none" stroke="#181818" stroke-width="1.1417" d="M150.725,33.67c1.719,5.24,4.779,8.728,8.268,8.728v-9.321
			C156.114,33.077,153.338,33.285,150.725,33.67z"/>
		<path fill="none" stroke="#181818" stroke-width="1.1417" d="M167.261,33.67c-2.615-0.386-5.391-0.593-8.268-0.593v9.321
			C162.482,42.398,165.541,38.91,167.261,33.67z"/>
	</g>
	<path fill="#FFFFFF" stroke="#181818" stroke-width="1.1417" d="M160.592,14.738c0,0.865-0.7,1.564-1.562,1.564
		c-0.863,0-1.564-0.699-1.564-1.564c0-0.863,0.701-1.562,1.564-1.562C159.892,13.176,160.592,13.875,160.592,14.738z"/>
	<path fill="#FFFFFF" stroke="#181818" stroke-width="1.1417" d="M152.255,14.104c0,0.863-0.701,1.563-1.564,1.563
		c-0.862,0-1.563-0.7-1.563-1.563c0-0.863,0.701-1.564,1.563-1.564C151.555,12.54,152.255,13.24,152.255,14.104z"/>
	<path fill="#FFFFFF" stroke="#181818" stroke-width="1.1417" d="M145.771,12.696c0,0.864-0.7,1.563-1.562,1.563
		c-0.864,0-1.563-0.699-1.563-1.563c0-0.863,0.698-1.562,1.563-1.562C145.071,11.134,145.771,11.833,145.771,12.696z"/>
	<path fill="#FFFFFF" stroke="#181818" stroke-width="1.1417" d="M142.108,23.856c0,0.863-0.699,1.562-1.562,1.562
		c-0.863,0-1.564-0.699-1.564-1.562c0-0.863,0.701-1.564,1.564-1.564C141.409,22.292,142.108,22.992,142.108,23.856z"/>
	<path fill="#FFFFFF" stroke="#181818" stroke-width="1.1417" d="M170.205,23.856c0,0.863-0.699,1.562-1.564,1.562
		c-0.863,0-1.562-0.699-1.562-1.562c0-0.863,0.699-1.564,1.562-1.564C169.506,22.292,170.205,22.992,170.205,23.856z"/>
	<path fill="#FFFFFF" stroke="#181818" stroke-width="1.1417" d="M179.018,23.856c0,0.863-0.702,1.562-1.564,1.562
		c-0.863,0-1.562-0.699-1.562-1.562c0-0.863,0.7-1.564,1.562-1.564C178.316,22.292,179.018,22.992,179.018,23.856z"/>
	<path fill="#FFFFFF" stroke="#181818" stroke-width="1.1417" d="M150.805,23.856c0,0.863-0.698,1.562-1.562,1.562
		c-0.863,0-1.563-0.699-1.563-1.562c0-0.863,0.7-1.564,1.563-1.564C150.107,22.292,150.805,22.992,150.805,23.856z"/>
	<path fill="#FFFFFF" stroke="#181818" stroke-width="1.1417" d="M152.294,33.641c0,0.863-0.7,1.562-1.563,1.562
		c-0.863,0-1.564-0.699-1.564-1.562c0-0.864,0.7-1.563,1.564-1.563C151.594,32.078,152.294,32.777,152.294,33.641z"/>
	<path fill="#FFFFFF" stroke="#181818" stroke-width="1.1417" d="M145.828,35.071c0,0.863-0.701,1.564-1.564,1.564
		c-0.863,0-1.563-0.701-1.563-1.564c0-0.864,0.7-1.563,1.563-1.563C145.128,33.508,145.828,34.207,145.828,35.071z"/>
	<path fill="#FFFFFF" stroke="#181818" stroke-width="1.1417" d="M168.774,33.697c0,0.863-0.699,1.564-1.562,1.564
		c-0.865,0-1.564-0.701-1.564-1.564c0-0.863,0.699-1.563,1.564-1.563C168.075,32.134,168.774,32.834,168.774,33.697z"/>
	<path fill="#FFFFFF" stroke="#181818" stroke-width="1.1417" d="M175.297,35.127c0,0.863-0.698,1.564-1.561,1.564
		c-0.865,0-1.564-0.7-1.564-1.564c0-0.863,0.699-1.563,1.564-1.563C174.598,33.564,175.297,34.264,175.297,35.127z"/>
	<path fill="#FFFFFF" stroke="#181818" stroke-width="1.1417" d="M168.717,14.184c0,0.865-0.701,1.563-1.563,1.563
		c-0.863,0-1.564-0.698-1.564-1.563c0-0.863,0.701-1.562,1.564-1.562C168.017,12.622,168.717,13.321,168.717,14.184z"/>
	<path fill="#FFFFFF" stroke="#181818" stroke-width="1.1417" d="M175.24,12.754c0,0.863-0.699,1.563-1.564,1.563
		c-0.863,0-1.561-0.701-1.561-1.563c0-0.863,0.698-1.562,1.561-1.562C174.541,11.192,175.24,11.891,175.24,12.754z"/>
	<path fill="#FFFFFF" stroke="#181818" stroke-width="1.1417" d="M160.592,24c0,0.864-0.7,1.564-1.562,1.564
		c-0.863,0-1.564-0.699-1.564-1.564c0-0.863,0.701-1.564,1.564-1.564C159.892,22.436,160.592,23.137,160.592,24z"/>
	<path fill="#FFFFFF" stroke="#181818" stroke-width="1.1417" d="M160.592,33.262c0,0.863-0.7,1.564-1.562,1.564
		c-0.863,0-1.564-0.701-1.564-1.564c0-0.863,0.701-1.564,1.564-1.564C159.892,31.698,160.592,32.399,160.592,33.262z"/>
	<path fill="#FFFFFF" stroke="#181818" stroke-width="1.1417" d="M160.592,42.408c0,0.865-0.7,1.564-1.562,1.564
		c-0.863,0-1.564-0.699-1.564-1.564c0-0.863,0.701-1.562,1.564-1.562C159.892,40.846,160.592,41.545,160.592,42.408z"/>
	<path fill="#FFFFFF" stroke="#181818" stroke-width="1.1417" d="M160.592,5.592c0,0.863-0.7,1.563-1.562,1.563
		c-0.863,0-1.564-0.7-1.564-1.563c0-0.863,0.701-1.564,1.564-1.564C159.892,4.028,160.592,4.729,160.592,5.592z"/>
</g>
<g>
	<g>
		<line fill="none" stroke="#000000" stroke-width="1.0829" x1="208.081" y1="42.318" x2="241.787" y2="42.318"/>
		<g>
			<g>
				<polygon fill="none" stroke="#000000" stroke-width="1.0829" stroke-linecap="round" stroke-linejoin="round" points="
					224.934,3.982 210.407,12.37 224.934,20.757 239.461,12.37 				"/>
				<polygon fill="none" stroke="#000000" stroke-width="1.0829" stroke-linecap="round" stroke-linejoin="round" points="
					210.407,12.37 210.407,29.143 224.934,37.531 224.934,20.757 				"/>
				<polygon fill="#FFFFFF" stroke="#000000" stroke-width="1.0829" stroke-linecap="round" stroke-linejoin="round" points="
					224.934,20.757 224.934,37.531 239.461,29.143 239.461,12.37 				"/>
			</g>
			<polyline fill="none" stroke="#000000" stroke-width="1.0829" points="218.455,8.046 232.334,16.26 232.334,23.483 			"/>
		</g>
		<g>
			<circle fill="#FFFFFF" stroke="#000000" stroke-width="1.0829" cx="208.222" cy="41.893" r="2.124"/>
			<circle fill="#FFFFFF" stroke="#000000" stroke-width="1.0829" cx="224.934" cy="41.893" r="2.124"/>
			<path fill="#FFFFFF" stroke="#000000" stroke-width="1.0829" d="M243.769,41.893c0,1.173-0.951,2.124-2.125,2.124
				c-1.173,0-2.124-0.951-2.124-2.124c0-1.173,0.951-2.124,2.124-2.124C242.818,39.769,243.769,40.72,243.769,41.893z"/>
		</g>
	</g>
	<g>
		<g>
			<path fill="#FFFFFF" stroke="#000000" stroke-width="1.0829" d="M243.902,29.747h-7.564c0,0,0,3.074,0,3.094
				c0,0.939,1.693,1.7,3.782,1.7c2.088,0,3.782-0.761,3.782-1.7c0-0.02-0.002-0.041-0.003-0.062L243.902,29.747z"/>
			<path fill="#FFFFFF" stroke="#000000" stroke-width="1.0829" d="M243.902,29.764c0,0.939-1.693,1.7-3.782,1.7
				c-2.089,0-3.782-0.761-3.782-1.7c0-0.938,1.693-1.7,3.782-1.7C242.209,28.064,243.902,28.826,243.902,29.764z"/>
		</g>
		<g>
			<path fill="#FFFFFF" stroke="#000000" stroke-width="1.0829" d="M243.902,24.451h-7.564c0,0,0,3.073,0,3.094
				c0,0.939,1.693,1.7,3.782,1.7c2.088,0,3.782-0.761,3.782-1.7c0-0.021-0.002-0.041-0.003-0.062L243.902,24.451z"/>
			<path fill="#FFFFFF" stroke="#000000" stroke-width="1.0829" d="M243.902,24.468c0,0.939-1.693,1.7-3.782,1.7
				c-2.089,0-3.782-0.761-3.782-1.7c0-0.939,1.693-1.7,3.782-1.7C242.209,22.768,243.902,23.529,243.902,24.468z"/>
		</g>
		<g>
			<path fill="#FFFFFF" stroke="#000000" stroke-width="1.0829" d="M243.902,19.155h-7.564c0,0,0,3.073,0,3.094
				c0,0.939,1.693,1.7,3.782,1.7c2.088,0,3.782-0.761,3.782-1.7c0-0.021-0.002-0.041-0.003-0.062L243.902,19.155z"/>
			<path fill="#FFFFFF" stroke="#000000" stroke-width="1.0829" d="M243.902,19.172c0,0.939-1.693,1.7-3.782,1.7
				c-2.089,0-3.782-0.761-3.782-1.7c0-0.939,1.693-1.7,3.782-1.7C242.209,17.472,243.902,18.233,243.902,19.172z"/>
		</g>
	</g>
</g>
<g>
	<g>
		<g>
			<g>
				<path fill="#FFFFFF" stroke="#000000" stroke-width="1.0721" stroke-linejoin="round" d="M108.516,6.698
					c0-1.5-1.216-2.716-2.717-2.716h-24.99c-1.5,0-2.717,1.216-2.717,2.716v2.988h30.423V6.698z"/>
				<path fill="none" stroke="#000000" stroke-width="1.0721" stroke-linejoin="round" d="M78.093,9.687v23.632
					c0,1.5,1.217,2.716,2.717,2.716h24.99c1.5,0,2.717-1.216,2.717-2.716V9.687H78.093z"/>
			</g>
			<g>
				<line fill="none" stroke="#000000" stroke-width="1.0721" x1="83.493" y1="15.428" x2="103.116" y2="15.428"/>
				<path fill="#FFFFFF" stroke="#000000" stroke-width="1.0721" stroke-linejoin="round" d="M89.792,15.428
					c0,1.07-0.868,1.938-1.939,1.938c-1.07,0-1.938-0.868-1.938-1.938c0-1.07,0.868-1.938,1.938-1.938
					C88.924,13.489,89.792,14.357,89.792,15.428z"/>
				<line fill="none" stroke="#000000" stroke-width="1.0721" x1="83.493" y1="22.453" x2="103.116" y2="22.453"/>
				<path fill="#FFFFFF" stroke="#000000" stroke-width="1.0721" stroke-linejoin="round" d="M98.513,22.453
					c0,1.07-0.867,1.938-1.938,1.938c-1.07,0-1.938-0.868-1.938-1.938s0.868-1.937,1.938-1.937
					C97.646,20.516,98.513,21.383,98.513,22.453z"/>
				<line fill="none" stroke="#000000" stroke-width="1.0721" x1="83.493" y1="29.479" x2="103.116" y2="29.479"/>
				<path fill="#FFFFFF" stroke="#000000" stroke-width="1.0721" stroke-linejoin="round" d="M93.91,29.479
					c0,1.07-0.868,1.938-1.939,1.938s-1.938-0.868-1.938-1.938s0.868-1.938,1.938-1.938S93.91,28.409,93.91,29.479z"/>
			</g>
		</g>
		<g>
			
				<line fill="none" stroke="#000000" stroke-width="1.0721" stroke-linejoin="round" x1="105.596" y1="5.884" x2="105.596" y2="7.513"/>
			
				<line fill="none" stroke="#000000" stroke-width="1.0721" stroke-linejoin="round" x1="103.423" y1="5.884" x2="103.423" y2="7.513"/>
			
				<line fill="none" stroke="#000000" stroke-width="1.0721" stroke-linejoin="round" x1="101.25" y1="5.884" x2="101.25" y2="7.513"/>
			
				<line fill="none" stroke="#000000" stroke-width="1.0721" stroke-linejoin="round" x1="99.076" y1="5.884" x2="99.076" y2="7.513"/>
		</g>
	</g>
	<g>
		<rect x="69.484" y="32.045" fill="#FFFFFF" stroke="#000000" stroke-width="1.0721" width="19.955" height="11.973"/>
		<g>
			<g>
				<line fill="none" stroke="#000000" stroke-width="1.0721" x1="73.179" y1="35.135" x2="73.179" y2="38.978"/>
				<line fill="none" stroke="#000000" stroke-width="1.0721" x1="75.693" y1="35.135" x2="75.693" y2="38.978"/>
				<line fill="none" stroke="#000000" stroke-width="1.0721" x1="78.205" y1="35.135" x2="78.205" y2="38.978"/>
				<line fill="none" stroke="#000000" stroke-width="1.0721" x1="80.718" y1="35.135" x2="80.718" y2="38.978"/>
				<line fill="none" stroke="#000000" stroke-width="1.0721" x1="83.231" y1="35.135" x2="83.231" y2="38.978"/>
				<line fill="none" stroke="#000000" stroke-width="1.0721" x1="85.743" y1="35.135" x2="85.743" y2="38.978"/>
			</g>
			<g>
				<line fill="none" stroke="#000000" stroke-width="1.0721" x1="73.179" y1="40.042" x2="73.179" y2="40.928"/>
				<line fill="none" stroke="#000000" stroke-width="1.0721" x1="75.693" y1="40.042" x2="75.693" y2="40.928"/>
				<line fill="none" stroke="#000000" stroke-width="1.0721" x1="78.205" y1="40.042" x2="78.205" y2="40.928"/>
				<line fill="none" stroke="#000000" stroke-width="1.0721" x1="80.718" y1="40.042" x2="80.718" y2="40.928"/>
				<line fill="none" stroke="#000000" stroke-width="1.0721" x1="83.231" y1="40.042" x2="83.231" y2="40.928"/>
				<line fill="none" stroke="#000000" stroke-width="1.0721" x1="85.743" y1="40.042" x2="85.743" y2="40.928"/>
			</g>
		</g>
	</g>
</g>
</svg>
