<?xml version="1.0" encoding="utf-8"?>
<!-- Generator: Adobe Illustrator 26.0.3, SVG Export Plug-In . SVG Version: 6.00 Build 0)  -->
<svg version="1.1" baseProfile="tiny" id="레이어_1"
	 xmlns="http://www.w3.org/2000/svg" xmlns:xlink="http://www.w3.org/1999/xlink" x="0px" y="0px" viewBox="0 0 48 48"
	 overflow="visible" xml:space="preserve">
<circle fill="#D42E30" cx="-30" cy="12" r="12"/>
<circle fill="#D42E30" cx="-128" cy="24" r="8"/>
<circle fill="#D42E30" cx="9.5" cy="9.5" r="9.5"/>
<circle fill="#D42E30" cx="-189" cy="32" r="9"/>
<g>
	<polyline fill="none" stroke="#FFB600" stroke-width="1.4783" stroke-miterlimit="10" points="-99.25,-47.396 -124.75,-35 
		-99.25,-22.604 	"/>
	<circle fill="#FFFFFF" stroke="#FFB600" stroke-width="1.4783" stroke-miterlimit="10" cx="-124.75" cy="-35" r="4.25"/>
	<circle fill="#FFFFFF" stroke="#FFB600" stroke-width="1.4783" stroke-miterlimit="10" cx="-99.25" cy="-47.396" r="4.25"/>
	<circle fill="#FFFFFF" stroke="#FFB600" stroke-width="1.4783" stroke-miterlimit="10" cx="-99.25" cy="-22.604" r="4.25"/>
</g>
<g>
	<polygon fill="#FFB600" points="-175.031,-16.427 -178.886,-16.427 -191.92,-29.461 -188.065,-33.315 -176.959,-22.208 
		-169.912,-29.255 -181.018,-40.362 -177.164,-44.216 -164.13,-31.182 -164.13,-27.328 	"/>
	<polygon fill="#FFB600" points="-175.146,-53.573 -179,-53.573 -196,-36.573 -196,-33.13 -193.867,-30.997 -188.265,-36.599 
		-177.031,-25.365 -173.177,-29.219 -184.411,-40.453 -177.073,-47.792 -160.164,-30.883 -158,-33.047 -158,-36.427 	"/>
</g>
<g>
	<polygon fill="none" stroke="#000000" stroke-width="1.2029" stroke-miterlimit="10" points="-174.926,43.568 -178.987,43.568 
		-192.719,29.836 -188.658,25.775 -176.956,37.477 -169.532,30.052 -181.234,18.35 -177.173,14.29 -163.441,28.022 -163.441,32.083 
			"/>
	<polygon fill="none" stroke="#000000" stroke-width="1.2029" stroke-miterlimit="10" points="-175.046,4.432 -179.107,4.432 
		-197.018,22.343 -197.018,25.97 -194.771,28.217 -188.869,22.315 -177.033,34.151 -172.972,30.091 -184.808,18.255 
		-177.077,10.523 -159.262,28.338 -156.982,26.058 -156.982,22.496 	"/>
</g>
<g>
	<polyline fill="none" stroke="#FFB600" stroke-width="2" stroke-linejoin="bevel" stroke-miterlimit="10" points="2.824,-39.412 
		45.123,-39.412 32.824,-50 	"/>
	<polyline fill="none" stroke="#FFB600" stroke-width="2" stroke-linejoin="bevel" stroke-miterlimit="10" points="45.176,-30.588 
		2.877,-30.588 15.176,-20 	"/>
</g>
<g>
	<polyline fill="none" stroke="#FFB600" stroke-width="2" stroke-linejoin="bevel" stroke-miterlimit="10" points="-63.333,-56 
		-56.997,-56 -56.997,-25.595 -20.667,-25.595 	"/>
	<polyline fill="none" stroke="#FFB600" stroke-width="2" stroke-linejoin="bevel" stroke-miterlimit="10" points="-56.997,-50.717 
		-22,-44.688 -22,-30.667 -56.997,-30.667 	"/>
	
		<circle fill="none" stroke="#FFB600" stroke-width="2" stroke-linejoin="bevel" stroke-miterlimit="10" cx="-52.667" cy="-18" r="4"/>
	<circle fill="none" stroke="#FFB600" stroke-width="2" stroke-linejoin="bevel" stroke-miterlimit="10" cx="-26" cy="-18" r="4"/>
</g>
<g>
	<g>
		<path fill="none" stroke="#181818" stroke-width="1.1417" d="M-51.748,23.893h-8.766c0,4.204,1.405,8.08,3.766,11.186
			c2.005-0.593,4.175-1.07,6.472-1.409C-51.207,30.832-51.748,27.484-51.748,23.893z"/>
		<path fill="none" stroke="#181818" stroke-width="1.1417" d="M-50.275,14.115c-2.298-0.338-4.468-0.815-6.472-1.409
			c-2.361,3.108-3.766,6.982-3.766,11.188h8.766C-51.748,20.303-51.207,16.952-50.275,14.115z"/>
		<path fill="none" stroke="#181818" stroke-width="1.1417" d="M-32.267,23.893h8.766c0-4.206-1.404-8.08-3.768-11.188
			c-2.003,0.594-4.174,1.072-6.471,1.409C-32.807,16.952-32.267,20.303-32.267,23.893z"/>
		<path fill="none" stroke="#181818" stroke-width="1.1417" d="M-33.739,33.67c2.297,0.338,4.468,0.816,6.471,1.409
			c2.363-3.106,3.768-6.982,3.768-11.186h-8.766C-32.267,27.484-32.807,30.832-33.739,33.67z"/>
		<path fill="none" stroke="#181818" stroke-width="1.1417" d="M-42.008,23.893h-9.74c0,3.59,0.54,6.939,1.472,9.777
			c2.614-0.386,5.39-0.593,8.268-0.593V23.893z"/>
		<path fill="none" stroke="#181818" stroke-width="1.1417" d="M-42.008,14.709c-2.878,0-5.654-0.209-8.268-0.594
			c-0.932,2.838-1.472,6.188-1.472,9.779h9.74V14.709z"/>
		<path fill="none" stroke="#181818" stroke-width="1.1417" d="M-42.008,33.077c2.877,0,5.654,0.207,8.268,0.593
			c0.932-2.838,1.472-6.186,1.472-9.777h-9.74V33.077z"/>
		<path fill="none" stroke="#181818" stroke-width="1.1417" d="M-42.008,23.893h9.74c0-3.59-0.54-6.941-1.472-9.779
			c-2.615,0.385-5.391,0.594-8.268,0.594V23.893z"/>
		<path fill="none" stroke="#181818" stroke-width="1.1417" d="M-42.008,5.386c-6.017,0-11.36,2.873-14.74,7.32
			c2.005,0.594,4.175,1.072,6.472,1.409C-48.557,8.876-45.496,5.386-42.008,5.386z"/>
		<path fill="none" stroke="#181818" stroke-width="1.1417" d="M-42.008,5.386c3.489,0,6.549,3.491,8.268,8.729
			c2.297-0.338,4.468-0.815,6.471-1.409C-30.649,8.259-35.992,5.386-42.008,5.386z"/>
		<path fill="none" stroke="#181818" stroke-width="1.1417" d="M-42.008,5.386c-3.489,0-6.549,3.491-8.268,8.729
			c2.614,0.385,5.39,0.594,8.268,0.594V5.386z"/>
		<path fill="none" stroke="#181818" stroke-width="1.1417" d="M-33.739,14.115c-1.719-5.238-4.779-8.729-8.268-8.729v9.323
			C-39.13,14.709-36.354,14.5-33.739,14.115z"/>
		<path fill="none" stroke="#181818" stroke-width="1.1417" d="M-42.008,42.398c-3.489,0-6.549-3.488-8.268-8.728
			c-2.298,0.338-4.468,0.816-6.472,1.409C-53.367,39.526-48.024,42.398-42.008,42.398z"/>
		<path fill="none" stroke="#181818" stroke-width="1.1417" d="M-42.008,42.398c6.016,0,11.358-2.873,14.739-7.319
			c-2.003-0.593-4.174-1.07-6.471-1.409C-35.459,38.91-38.518,42.398-42.008,42.398z"/>
		<path fill="none" stroke="#181818" stroke-width="1.1417" d="M-50.275,33.67c1.719,5.24,4.779,8.728,8.268,8.728v-9.321
			C-44.886,33.077-47.662,33.285-50.275,33.67z"/>
		<path fill="none" stroke="#181818" stroke-width="1.1417" d="M-33.739,33.67c-2.615-0.386-5.391-0.593-8.268-0.593v9.321
			C-38.518,42.398-35.459,38.91-33.739,33.67z"/>
	</g>
	<path fill="#FFFFFF" stroke="#181818" stroke-width="1.1417" d="M-40.408,14.738c0,0.865-0.7,1.564-1.562,1.564
		c-0.863,0-1.564-0.699-1.564-1.564c0-0.863,0.701-1.562,1.564-1.562C-41.108,13.176-40.408,13.875-40.408,14.738z"/>
	<path fill="#FFFFFF" stroke="#181818" stroke-width="1.1417" d="M-48.745,14.104c0,0.863-0.701,1.563-1.564,1.563
		c-0.862,0-1.563-0.7-1.563-1.563c0-0.863,0.701-1.564,1.563-1.564C-49.445,12.54-48.745,13.24-48.745,14.104z"/>
	<path fill="#FFFFFF" stroke="#181818" stroke-width="1.1417" d="M-55.229,12.696c0,0.864-0.7,1.563-1.562,1.563
		c-0.864,0-1.563-0.699-1.563-1.563c0-0.863,0.698-1.562,1.563-1.562C-55.929,11.134-55.229,11.833-55.229,12.696z"/>
	<path fill="#FFFFFF" stroke="#181818" stroke-width="1.1417" d="M-58.892,23.856c0,0.863-0.699,1.562-1.562,1.562
		c-0.863,0-1.564-0.699-1.564-1.562c0-0.863,0.701-1.564,1.564-1.564C-59.591,22.292-58.892,22.992-58.892,23.856z"/>
	<path fill="#FFFFFF" stroke="#181818" stroke-width="1.1417" d="M-30.795,23.856c0,0.863-0.699,1.562-1.564,1.562
		c-0.863,0-1.562-0.699-1.562-1.562c0-0.863,0.699-1.564,1.562-1.564C-31.494,22.292-30.795,22.992-30.795,23.856z"/>
	<path fill="#FFFFFF" stroke="#181818" stroke-width="1.1417" d="M-21.982,23.856c0,0.863-0.702,1.562-1.564,1.562
		c-0.863,0-1.562-0.699-1.562-1.562c0-0.863,0.7-1.564,1.562-1.564C-22.684,22.292-21.982,22.992-21.982,23.856z"/>
	<path fill="#FFFFFF" stroke="#181818" stroke-width="1.1417" d="M-50.195,23.856c0,0.863-0.698,1.562-1.562,1.562
		c-0.863,0-1.563-0.699-1.563-1.562c0-0.863,0.7-1.564,1.563-1.564C-50.893,22.292-50.195,22.992-50.195,23.856z"/>
	<path fill="#FFFFFF" stroke="#181818" stroke-width="1.1417" d="M-48.706,33.641c0,0.863-0.7,1.562-1.563,1.562
		c-0.863,0-1.564-0.699-1.564-1.562c0-0.864,0.7-1.563,1.564-1.563C-49.406,32.078-48.706,32.777-48.706,33.641z"/>
	<path fill="#FFFFFF" stroke="#181818" stroke-width="1.1417" d="M-55.172,35.071c0,0.863-0.701,1.564-1.564,1.564
		c-0.863,0-1.563-0.701-1.563-1.564c0-0.864,0.7-1.563,1.563-1.563C-55.872,33.508-55.172,34.207-55.172,35.071z"/>
	<path fill="#FFFFFF" stroke="#181818" stroke-width="1.1417" d="M-32.226,33.697c0,0.863-0.699,1.564-1.562,1.564
		c-0.865,0-1.564-0.701-1.564-1.564c0-0.863,0.699-1.563,1.564-1.563C-32.925,32.134-32.226,32.834-32.226,33.697z"/>
	<path fill="#FFFFFF" stroke="#181818" stroke-width="1.1417" d="M-25.703,35.127c0,0.863-0.698,1.564-1.561,1.564
		c-0.865,0-1.564-0.7-1.564-1.564c0-0.863,0.699-1.563,1.564-1.563C-26.402,33.564-25.703,34.264-25.703,35.127z"/>
	<path fill="#FFFFFF" stroke="#181818" stroke-width="1.1417" d="M-32.283,14.184c0,0.865-0.701,1.563-1.563,1.563
		c-0.863,0-1.564-0.698-1.564-1.563c0-0.863,0.701-1.562,1.564-1.562C-32.983,12.622-32.283,13.321-32.283,14.184z"/>
	<path fill="#FFFFFF" stroke="#181818" stroke-width="1.1417" d="M-25.76,12.754c0,0.863-0.699,1.563-1.564,1.563
		c-0.863,0-1.561-0.701-1.561-1.563c0-0.863,0.698-1.562,1.561-1.562C-26.459,11.192-25.76,11.891-25.76,12.754z"/>
	<path fill="#FFFFFF" stroke="#181818" stroke-width="1.1417" d="M-40.408,24c0,0.864-0.7,1.564-1.562,1.564
		c-0.863,0-1.564-0.699-1.564-1.564c0-0.863,0.701-1.564,1.564-1.564C-41.108,22.436-40.408,23.137-40.408,24z"/>
	<path fill="#FFFFFF" stroke="#181818" stroke-width="1.1417" d="M-40.408,33.262c0,0.863-0.7,1.564-1.562,1.564
		c-0.863,0-1.564-0.701-1.564-1.564c0-0.863,0.701-1.564,1.564-1.564C-41.108,31.698-40.408,32.399-40.408,33.262z"/>
	<path fill="#FFFFFF" stroke="#181818" stroke-width="1.1417" d="M-40.408,42.408c0,0.865-0.7,1.564-1.562,1.564
		c-0.863,0-1.564-0.699-1.564-1.564c0-0.863,0.701-1.562,1.564-1.562C-41.108,40.846-40.408,41.545-40.408,42.408z"/>
	<path fill="#FFFFFF" stroke="#181818" stroke-width="1.1417" d="M-40.408,5.592c0,0.863-0.7,1.563-1.562,1.563
		c-0.863,0-1.564-0.7-1.564-1.563c0-0.863,0.701-1.564,1.564-1.564C-41.108,4.028-40.408,4.729-40.408,5.592z"/>
</g>
<g>
	<g>
		<g>
			<polygon fill="none" stroke="#000000" stroke-width="1.2923" stroke-linecap="round" stroke-linejoin="round" points="
				21.35,3.982 4.014,13.991 21.35,24.001 38.686,13.991 			"/>
			<polygon fill="none" stroke="#000000" stroke-width="1.2923" stroke-linecap="round" stroke-linejoin="round" points="
				4.014,13.991 4.014,34.009 21.35,44.018 21.35,24.001 			"/>
			<polygon fill="#FFFFFF" stroke="#000000" stroke-width="1.2923" stroke-linecap="round" stroke-linejoin="round" points="
				21.35,24.001 21.35,44.018 38.686,34.009 38.686,13.991 			"/>
		</g>
		<polyline fill="none" stroke="#000000" stroke-width="1.2923" points="13.618,8.832 30.181,18.635 30.181,27.253 		"/>
	</g>
	<g>
		<g>
			<path fill="#FFFFFF" stroke="#000000" stroke-width="1.2923" d="M43.986,34.729H34.96c0,0,0,3.668,0,3.692
				c0,1.121,2.021,2.028,4.513,2.028c2.492,0,4.513-0.908,4.513-2.028c0-0.024-0.003-0.049-0.004-0.074L43.986,34.729z"/>
			<path fill="#FFFFFF" stroke="#000000" stroke-width="1.2923" d="M43.986,34.75c0,1.121-2.021,2.029-4.513,2.029
				c-2.493,0-4.513-0.909-4.513-2.029c0-1.12,2.021-2.029,4.513-2.029C41.965,32.72,43.986,33.63,43.986,34.75z"/>
		</g>
		<g>
			<path fill="#FFFFFF" stroke="#000000" stroke-width="1.2923" d="M43.986,28.409H34.96c0,0,0,3.667,0,3.692
				c0,1.121,2.021,2.028,4.513,2.028c2.492,0,4.513-0.908,4.513-2.028c0-0.025-0.003-0.049-0.004-0.074L43.986,28.409z"/>
			<path fill="#FFFFFF" stroke="#000000" stroke-width="1.2923" d="M43.986,28.43c0,1.121-2.021,2.029-4.513,2.029
				c-2.493,0-4.513-0.909-4.513-2.029c0-1.121,2.021-2.029,4.513-2.029C41.965,26.4,43.986,27.309,43.986,28.43z"/>
		</g>
		<g>
			<path fill="#FFFFFF" stroke="#000000" stroke-width="1.2923" d="M43.986,22.089H34.96c0,0,0,3.667,0,3.692
				c0,1.121,2.021,2.028,4.513,2.028c2.492,0,4.513-0.908,4.513-2.028c0-0.025-0.003-0.049-0.004-0.074L43.986,22.089z"/>
			<path fill="#FFFFFF" stroke="#000000" stroke-width="1.2923" d="M43.986,22.11c0,1.121-2.021,2.029-4.513,2.029
				c-2.493,0-4.513-0.909-4.513-2.029c0-1.121,2.021-2.029,4.513-2.029C41.965,20.08,43.986,20.989,43.986,22.11z"/>
		</g>
	</g>
</g>
<g>
	<g>
		<g>
			<g>
				<path fill="#FFFFFF" stroke="#000000" stroke-width="1.0721" stroke-linejoin="round" d="M-92.484,6.698
					c0-1.5-1.216-2.716-2.717-2.716h-24.99c-1.5,0-2.717,1.216-2.717,2.716v2.988h30.423V6.698z"/>
				<path fill="none" stroke="#000000" stroke-width="1.0721" stroke-linejoin="round" d="M-122.907,9.687v23.632
					c0,1.5,1.217,2.716,2.717,2.716h24.99c1.5,0,2.717-1.216,2.717-2.716V9.687H-122.907z"/>
			</g>
			<g>
				<line fill="none" stroke="#000000" stroke-width="1.0721" x1="-117.507" y1="15.428" x2="-97.884" y2="15.428"/>
				<path fill="#FFFFFF" stroke="#000000" stroke-width="1.0721" stroke-linejoin="round" d="M-111.208,15.428
					c0,1.07-0.868,1.938-1.939,1.938c-1.07,0-1.938-0.868-1.938-1.938c0-1.07,0.868-1.938,1.938-1.938
					C-112.076,13.489-111.208,14.357-111.208,15.428z"/>
				<line fill="none" stroke="#000000" stroke-width="1.0721" x1="-117.507" y1="22.453" x2="-97.884" y2="22.453"/>
				<path fill="#FFFFFF" stroke="#000000" stroke-width="1.0721" stroke-linejoin="round" d="M-102.487,22.453
					c0,1.07-0.867,1.938-1.938,1.938c-1.07,0-1.938-0.868-1.938-1.938s0.868-1.937,1.938-1.937
					C-103.354,20.516-102.487,21.383-102.487,22.453z"/>
				<line fill="none" stroke="#000000" stroke-width="1.0721" x1="-117.507" y1="29.479" x2="-97.884" y2="29.479"/>
				<path fill="#FFFFFF" stroke="#000000" stroke-width="1.0721" stroke-linejoin="round" d="M-107.09,29.479
					c0,1.07-0.868,1.938-1.939,1.938s-1.938-0.868-1.938-1.938s0.868-1.938,1.938-1.938S-107.09,28.409-107.09,29.479z"/>
			</g>
		</g>
		<g>
			
				<line fill="none" stroke="#000000" stroke-width="1.0721" stroke-linejoin="round" x1="-95.404" y1="5.884" x2="-95.404" y2="7.513"/>
			
				<line fill="none" stroke="#000000" stroke-width="1.0721" stroke-linejoin="round" x1="-97.577" y1="5.884" x2="-97.577" y2="7.513"/>
			
				<line fill="none" stroke="#000000" stroke-width="1.0721" stroke-linejoin="round" x1="-99.75" y1="5.884" x2="-99.75" y2="7.513"/>
			
				<line fill="none" stroke="#000000" stroke-width="1.0721" stroke-linejoin="round" x1="-101.924" y1="5.884" x2="-101.924" y2="7.513"/>
		</g>
	</g>
	<g>
		<rect x="-131.516" y="32.045" fill="#FFFFFF" stroke="#000000" stroke-width="1.0721" width="19.955" height="11.973"/>
		<g>
			<g>
				<line fill="none" stroke="#000000" stroke-width="1.0721" x1="-127.821" y1="35.135" x2="-127.821" y2="38.978"/>
				<line fill="none" stroke="#000000" stroke-width="1.0721" x1="-125.307" y1="35.135" x2="-125.307" y2="38.978"/>
				<line fill="none" stroke="#000000" stroke-width="1.0721" x1="-122.795" y1="35.135" x2="-122.795" y2="38.978"/>
				<line fill="none" stroke="#000000" stroke-width="1.0721" x1="-120.282" y1="35.135" x2="-120.282" y2="38.978"/>
				<line fill="none" stroke="#000000" stroke-width="1.0721" x1="-117.769" y1="35.135" x2="-117.769" y2="38.978"/>
				<line fill="none" stroke="#000000" stroke-width="1.0721" x1="-115.257" y1="35.135" x2="-115.257" y2="38.978"/>
			</g>
			<g>
				<line fill="none" stroke="#000000" stroke-width="1.0721" x1="-127.821" y1="40.042" x2="-127.821" y2="40.928"/>
				<line fill="none" stroke="#000000" stroke-width="1.0721" x1="-125.307" y1="40.042" x2="-125.307" y2="40.928"/>
				<line fill="none" stroke="#000000" stroke-width="1.0721" x1="-122.795" y1="40.042" x2="-122.795" y2="40.928"/>
				<line fill="none" stroke="#000000" stroke-width="1.0721" x1="-120.282" y1="40.042" x2="-120.282" y2="40.928"/>
				<line fill="none" stroke="#000000" stroke-width="1.0721" x1="-117.769" y1="40.042" x2="-117.769" y2="40.928"/>
				<line fill="none" stroke="#000000" stroke-width="1.0721" x1="-115.257" y1="40.042" x2="-115.257" y2="40.928"/>
			</g>
		</g>
	</g>
</g>
</svg>
