<svg width="114" height="146" viewBox="0 0 114 146" fill="none" xmlns="http://www.w3.org/2000/svg">
<path d="M80 2V34H112" stroke="#B82121" stroke-width="3" stroke-linejoin="round"/>
<path d="M111.549 34.0366H113.049C113.049 33.6388 112.891 33.2572 112.609 32.9759L111.549 34.0366ZM79.5121 2L80.5728 0.93934C80.2915 0.658035 79.91 0.5 79.5121 0.5V2ZM111.549 144V145.5C111.947 145.5 112.328 145.342 112.609 145.061C112.891 144.779 113.049 144.398 113.049 144H111.549ZM2.45117 144H0.951172C0.951172 144.828 1.62274 145.5 2.45117 145.5L2.45117 144ZM2.45117 2V0.5C1.62274 0.5 0.951172 1.17157 0.951172 2L2.45117 2ZM112.609 32.9759L80.5728 0.93934L78.4515 3.06066L110.488 35.0972L112.609 32.9759ZM110.049 34.0366L110.049 144H113.049L113.049 34.0366H110.049ZM111.549 142.5H2.45117V145.5H111.549V142.5ZM3.95117 144V2H0.951172V144H3.95117ZM2.45117 3.5H79.5121V0.5H2.45117V3.5Z" fill="#B82121"/>
<path d="M39.6826 76.8964H75.1826" stroke="#B82121" stroke-width="5" stroke-linejoin="round"/>
<path d="M57.4326 59.1464L57.4326 94.6464" stroke="#B82121" stroke-width="5" stroke-linejoin="round"/>
</svg>
